<svg id="Layer_1" data-name="Layer 1" xmlns="http://www.w3.org/2000/svg" viewBox="0 0 600 212.228"><defs><style>.cls-1{fill:#63c4b1;}.cls-2{fill:#f3735d;}.cls-3{fill:#fed87a;}</style></defs><path class="cls-1" d="M1874.382,2057.884a20.488,20.488,0,0,1-12.981-4.75,51.654,51.654,0,0,1-10.984-12.375,106.059,106.059,0,0,1-8.987-17.125q-4-9.5-6.99-19.124t-4.993-18.25q-2-8.625-2.995-14.625,0-.5-2,3.5t-5.118,10.75l-7.115,15.375q-3.995,8.625-8.237,17.374t-8.113,17q-3.875,8.25-6.865,14a73.787,73.787,0,0,1-4.119,7.5,6.534,6.534,0,0,1-2.622,2.5,4.308,4.308,0,0,1-1.747.25,13.262,13.262,0,0,1-3.37-.5,8.479,8.479,0,0,1-3.12-1.5,4.719,4.719,0,0,1-1.623-2.125q-.375-1.125.5-5.875t3.121-15q2.245-10.248,6.49-29.25,3.247-14.746,5.367-24.374t3.495-16.375q1.37-6.75,2.247-11.625t1.623-9.875q.749-3.75.873-4.25c.082-.332-.211-.664-.873-1a5.8,5.8,0,0,1-2.871-3.375,32.056,32.056,0,0,1-1.373-7.375,46.062,46.062,0,0,1,0-9.625q.5-4.621,1.747-6.624a3.719,3.719,0,0,1,3.245-2q3,0,6.117,3.5a17.441,17.441,0,0,1,3.869,6,39.215,39.215,0,0,1,.873,8.625,96.551,96.551,0,0,1-.374,11.125q-.5,5.754-1.872,14.125t-3.121,17.5q-1.749,9.129-3.619,18.375t-3.495,16.624q-1.628,7.377-2.621,12.25a49.961,49.961,0,0,1-1.249,5.375q0,1,1.623-2.375t4.494-9.375q2.866-6,6.49-13.625t7.364-15.374q3.745-7.746,7.24-14.625a126.8,126.8,0,0,1,6.241-11.125,7.679,7.679,0,0,0,1.123-2.125,28.7,28.7,0,0,0,.125-3.625q.246-7,2-8a4.949,4.949,0,0,1,2.246-.5,8.287,8.287,0,0,1,3.246.75,16.93,16.93,0,0,1,3,1.625,3.557,3.557,0,0,1,1.5,1.75q.246.879-1,1.125-.75.252-.749.75a83.16,83.16,0,0,0,.624,20.625,167.322,167.322,0,0,0,4.992,23,201.49,201.49,0,0,0,17.725,42.124,84.4,84.4,0,0,0,9.486,13.75q4.615,5.25,8.113,5.25a3.986,3.986,0,0,0,1.747-.5q5.243-3,8.613-9.875a74.306,74.306,0,0,0,5.367-15,137.363,137.363,0,0,0,3-16.5q.994-8.373,1.248-14.374a172.633,172.633,0,0,0-.624-23q-1.122-13.248-3.37-27a257.359,257.359,0,0,0-5.741-26.5,120.378,120.378,0,0,0-7.988-21.749q-2-4.248,1.5-4.25a6.9,6.9,0,0,1,4.494,1.25,11.232,11.232,0,0,1,2.746,4,121.722,121.722,0,0,1,8.737,22.249,266.341,266.341,0,0,1,6.241,26.125q2.492,13.377,3.62,25.875t1.123,21.5q-.252,7.75-1.5,18.5a94.4,94.4,0,0,1-4.743,20.625,49.065,49.065,0,0,1-9.861,16.875Q1884.618,2057.88,1874.382,2057.884Z" transform="translate(-1772.294 -1893.886)"/><path class="cls-1" d="M1935.79,2029.836c-.167-1.164-.335-1.75-.5-1.75s-.5.336-1,1a24.03,24.03,0,0,1-4.368,3.874,9.26,9.26,0,0,1-5.367,1.626,14.274,14.274,0,0,1-9.736-3.751q-3.247-3-3.62-9.624a42.128,42.128,0,0,1,1.5-13.5,37.813,37.813,0,0,1,5.492-12q3.617-5.121,8.363-5.125a8.26,8.26,0,0,1,2.5.5q5.489,1.752,6.865,4.625t1.623,2.875l.249-.75a14.875,14.875,0,0,1,.5-2.5,47.26,47.26,0,0,1,2.247-8.125q1.247-3.123,2.5-3.875a1.981,1.981,0,0,1,1.248-.25,8.22,8.22,0,0,1,4.243,1.375,9.086,9.086,0,0,1,3.246,3.125q.748,1.5-.25,4.25t-3.994,10.75l-.25,3q-.25,2-.749,7t-.748,10.375a62.807,62.807,0,0,0,.249,9.874q.5,4.5,2,5.75,2,1.5,1.373,2.25a3.393,3.393,0,0,1-2.621.75,10.149,10.149,0,0,1-7.988-3.375A12.146,12.146,0,0,1,1935.79,2029.836Zm-1.248-24.5c0,.168-.835-.332-2.5-1.5a6.359,6.359,0,0,1-2.746-5,27.667,27.667,0,0,0-6.616,13,42.018,42.018,0,0,0-.624,14.75,30.489,30.489,0,0,0,4.369-5.75q2.118-3.5,3.994-6.875t2.995-5.875A19.043,19.043,0,0,0,1934.542,2005.337Z" transform="translate(-1772.294 -1893.886)"/><path class="cls-1" d="M1963.5,2003.587q0,2-.125,4.875c-.086,1.918-.042,2.793.125,2.625q1.995-3,5.492-8a117.574,117.574,0,0,1,7.739-9.875,69.5,69.5,0,0,1,8.737-8.5q4.494-3.621,8.238-3.625,3.494,0,7.239,4a11.943,11.943,0,0,1,2.621,3.875,17.982,17.982,0,0,1,1.124,5.375,50.466,50.466,0,0,1-.25,8.375q-.5,5.127-1.5,13.375-.251,3.252-.748,8.749a26.881,26.881,0,0,0,.249,8.5q.749,2.754-1.248,2.75a7.1,7.1,0,0,1-3.994-1.624,11.034,11.034,0,0,1-3-2.875,18.738,18.738,0,0,1-1.5-8.25,108.819,108.819,0,0,1,.624-11.25q.621-6,1.374-11.75a76.224,76.224,0,0,0,.748-9.5,54.016,54.016,0,0,0-12.981,12.875,153.278,153.278,0,0,0-10.984,16.875,78.512,78.512,0,0,0-6.864,15.624q-2.124,7.125-.625,9.125,1.246,1.752,0,2.625a5.521,5.521,0,0,1-3.245.875,11.275,11.275,0,0,1-3.994-.75,3.768,3.768,0,0,1-2.5-2.75l-.5-2a83.571,83.571,0,0,1-.873-8.874q-.375-6.125-.375-14t.375-16.375q.374-8.5,1-15.875t1.623-12.75q.995-5.373,2.5-6.625a3.827,3.827,0,0,1,1.5-.5,4.782,4.782,0,0,1,1.5.25,10.452,10.452,0,0,1,1.248.5q5.488,2.5,4.493,4.5-.25,1.254-1.622,8.125T1963.5,2003.587Z" transform="translate(-1772.294 -1893.886)"/><path class="cls-1" d="M2016.965,2013.485q-1.5,8.781-.374,13.648t1.622,4.867c.164,0,.5-.316,1-.954a18.117,18.117,0,0,1,1.748-1.909,53.208,53.208,0,0,0,5.616-8.4q2.868-5.154,5.742-11.071t5.367-12.025q2.493-6.108,4.369-10.976t3.12-8.017q1.247-3.15,1.248-3.341,1.246-8.2,2.746-15.079,1.246-5.915,2.621-11.167t2.621-6.776a3.025,3.025,0,0,1,2.247-.764,12.694,12.694,0,0,1,4.743,1.146,6.437,6.437,0,0,1,3.495,2.672q.748,1.146.374,4.2a72.4,72.4,0,0,1-1.872,8.781,70.412,70.412,0,0,1-2.621,8.78,63.114,63.114,0,0,0-2.746,10.69,146.123,146.123,0,0,0-1.747,15.461,192.459,192.459,0,0,0,.124,22.906q.5,8.783,1.124,13.171a34.278,34.278,0,0,0,1.248,6.108,9.42,9.42,0,0,0,.749,1.813c.082.066-.125.287-.624.668q-1.253.959-4.494.955a14.52,14.52,0,0,1-3.37-.382,3.344,3.344,0,0,1-2.122-1.145q-2.75-4.008-3.744-13.935a95.376,95.376,0,0,1-.374-9.925q.122-3.245-.375-3.245-.252,0-1.373,2.672a88.026,88.026,0,0,1-4.119,8.017q-5,9.548-8.987,13.266a12.853,12.853,0,0,1-8.986,3.722,21.181,21.181,0,0,1-6.866-1.145,12.1,12.1,0,0,1-5.367-3.436q-2.75-3.243-3.37-9.448a46.513,46.513,0,0,1,.749-13.362,61.917,61.917,0,0,1,4.494-14.03,36.865,36.865,0,0,1,7.863-11.453,10.135,10.135,0,0,1,13.106-1.813,17.881,17.881,0,0,1,4.368,3.722,19.815,19.815,0,0,1,2.621,3.913q.873,1.817.375,2.195a2.443,2.443,0,0,1-1.5.382,8.474,8.474,0,0,1-3.62-1.05,9.909,9.909,0,0,1-3.37-2.577,1.034,1.034,0,0,0-.5-.763.528.528,0,0,0-.249-.382q-.252-.187-1.873,1.336a24.68,24.68,0,0,0-3.619,4.677,61.514,61.514,0,0,0-4.119,7.921A44.2,44.2,0,0,0,2016.965,2013.485Z" transform="translate(-1772.294 -1893.886)"/><path class="cls-1" d="M2092.552,1999.087a31.5,31.5,0,0,1-1.623,7.375,40.986,40.986,0,0,1-3.495,7.75,22.323,22.323,0,0,1-4.993,6,9.145,9.145,0,0,1-5.866,2.375,7.141,7.141,0,0,1-3.245-.75l-1.748-.75q0,.5-.125,3.749a23.637,23.637,0,0,0,1.124,7.5,20.249,20.249,0,0,0,11.233-4q4.494-3.5,7.989-6.5c.163-.332.581-.5,1.248-.5q1.995,0,4.244,2.5t2,3.749q0,.252-1.124,1.251t-2.5,2.249q-1.375,1.254-2.871,2.5a13.829,13.829,0,0,1-2.5,1.75,20.241,20.241,0,0,1-11.483,3.5,17.243,17.243,0,0,1-7.614-1.75,14.5,14.5,0,0,1-5.866-5.124,19.7,19.7,0,0,1-2.871-8.75,34.88,34.88,0,0,1,1.123-12.375,37.831,37.831,0,0,1,2.371-6.875,72.876,72.876,0,0,1,4.494-8.75,38.712,38.712,0,0,1,5.742-7.5q3.117-3.123,6.365-3.125a7.711,7.711,0,0,1,3.62,1,10.914,10.914,0,0,1,3.37,2.875,14.312,14.312,0,0,1,2.372,4.625A15.8,15.8,0,0,1,2092.552,1999.087Zm-18.973,15.5q2.247-1.248,5.992-6.5a29.6,29.6,0,0,0,4.992-11.5q.5-2.25,0-2.25.246,0-1.747,1.5a28.833,28.833,0,0,0-4.868,6.375q-1.872,3.375-3.121,6.125a48.355,48.355,0,0,0-2,6.5Z" transform="translate(-1772.294 -1893.886)"/><path class="cls-1" d="M2113.02,1991.337c0,.5-.086,1.5-.25,3s-.335,3.086-.5,4.75-.336,3.918-.5,6.75q3.99-6.75,7.489-12.25,3.242-4.5,6.615-8.375t5.367-4.125a5.165,5.165,0,0,1,4.119,1.75,14.687,14.687,0,0,1,3.12,4q.5,1.752.749,3a28.536,28.536,0,0,1,0,5.5v9.25a14.433,14.433,0,0,0,.25,3.5c0,1-.335,1.5-1,1.5a4.484,4.484,0,0,1-2.621-1,8.521,8.521,0,0,1-2.371-2.75,8.928,8.928,0,0,1-1.373-4.375,64.145,64.145,0,0,1-.125-9.375,74.918,74.918,0,0,0-7.989,10.875,126.261,126.261,0,0,0-6.615,12.25q-2.872,6.129-4.743,11.375a34.637,34.637,0,0,0-2.122,8.5c-.167,1.168-.125,1.75.125,1.75s.456.418.624,1.25q0,1.752-3.245,1.75a8.638,8.638,0,0,1-3.121-.625,8.071,8.071,0,0,1-2.87-1.874q-.749-1-1.123-4.626a75.42,75.42,0,0,1-.375-7.75q0-4.125.25-7.874c.163-2.5.249-4.082.249-4.75q.5-7.746,1.124-12.875t1.123-8.125q.5-3,.874-4.375a10.8,10.8,0,0,0,.374-1.625c0-.664.5-1,1.5-1a6.168,6.168,0,0,1,2.246.5,8.232,8.232,0,0,1,2.372,1.5,9.668,9.668,0,0,1,1.872,2.25A3.942,3.942,0,0,1,2113.02,1991.337Z" transform="translate(-1772.294 -1893.886)"/><path class="cls-1" d="M2155.954,1973.3q-.75,13.675-1,27.637t-.25,25.453v18.994q0,7.506-.249,7.883a7.37,7.37,0,0,1-4.494,1.14,19.989,19.989,0,0,1-3.37-.38q-2.124-.38-2.122-1.9,0-3.8-.374-11.4t-.5-17.665q-.129-10.067.124-21.939t1-24.028c0-.252.082-1.14.25-2.659s.331-3.324.5-5.414.374-4.368.624-6.838.5-4.748.749-6.838a51.071,51.071,0,0,1,.874-5.318,7.206,7.206,0,0,1,.749-2.374,2.491,2.491,0,0,1,1.248-.19,8.792,8.792,0,0,1,3.744.949,11.8,11.8,0,0,1,3,1.9,1.225,1.225,0,0,1,.374.664,15.737,15.737,0,0,1,.125,2.66q0,2.186-.25,6.648T2155.954,1973.3Z" transform="translate(-1772.294 -1893.886)"/><path class="cls-1" d="M2193.4,2043.086a7.28,7.28,0,0,1-4.992-2.125,8.927,8.927,0,0,1-2.247-4.625,34.122,34.122,0,0,1-.5-6.125v-6.874l-1,1.25a34.582,34.582,0,0,1-5.242,5.874,8.6,8.6,0,0,1-5.742,2.125,15.472,15.472,0,0,1-6.49-2q-4.494-2.248-5.742-8.5a44.8,44.8,0,0,1-.624-13,71.97,71.97,0,0,1,2.246-12.625q1.622-5.871,3.121-7.375a3.6,3.6,0,0,1,3-1.25,7.71,7.71,0,0,1,3.619,1,15.8,15.8,0,0,1,3.121,2.125,3.724,3.724,0,0,1,1.373,2.125q.123,1-1.623,1a2.806,2.806,0,0,0-1,1,24.423,24.423,0,0,0-2.122,7.625,84.37,84.37,0,0,0-.749,8.875q-.129,4.254.125,10.75.5.5,5.616-7.625t11.608-23.875a33.89,33.89,0,0,0,1.5-3.375,5.964,5.964,0,0,1,.749-1.625,2.244,2.244,0,0,1,2-.75,8.778,8.778,0,0,1,3.121.75,9.98,9.98,0,0,1,3.37,2.25,3.472,3.472,0,0,1,1.248,2.25,24.865,24.865,0,0,1-.749,4.25q-3,17-3.869,26.375a102.861,102.861,0,0,0-.624,13.875,23.1,23.1,0,0,0,.748,5.749,2.425,2.425,0,0,1,.25,1.75q-.252.75-2.247.75Z" transform="translate(-1772.294 -1893.886)"/><path class="cls-1" d="M2233.836,1984.837q-.25.252-3.869,3.375t-7.864,7.5a100.948,100.948,0,0,0-7.863,9.125q-3.622,4.752-3.62,8.25,0,.252,2.746,1.5t5.991,2.5q4.74,2,6.99,3.25a19.381,19.381,0,0,1,4.244,3.25q5.739,5.754,4.993,11.624t-7.989,9.375a56.133,56.133,0,0,1-7.239,2.375,30.662,30.662,0,0,1-7.489.875,6.9,6.9,0,0,1-3.5-1.75,13.733,13.733,0,0,1-2.871-3.375,9.737,9.737,0,0,1-1.373-3.625,2.194,2.194,0,0,1,1.248-2.5,1.456,1.456,0,0,1,1-.25,3.326,3.326,0,0,1,2,.75,4.321,4.321,0,0,0,1.747.75,3.292,3.292,0,0,0,.749-.125,4.143,4.143,0,0,1,1-.125q7.986-1.5,11.233-4.75t3.246-4c0-.165-.585-.5-1.748-1s-2.539-1.081-4.119-1.749-3.245-1.375-4.993-2.125a26.281,26.281,0,0,1-11.233-9.125,14.5,14.5,0,0,1-2.621-8q0-4.5,3.37-9.75a64.486,64.486,0,0,1,8.113-10.125,121.94,121.94,0,0,1,9.236-8.625,34.309,34.309,0,0,1,6.741-4.75,4.09,4.09,0,0,1,2.246-.5,5.326,5.326,0,0,1,4.244,2.125q1.745,2.127,2,6.375a5.568,5.568,0,0,1-.624,2.5,2.18,2.18,0,0,1-2.122,1.25A8,8,0,0,1,2233.836,1984.837Z" transform="translate(-1772.294 -1893.886)"/><path class="cls-1" d="M2204.879,1957.182v3.855q0,1.388-1.12,1.387a7.31,7.31,0,0,1-5.6-2.929,12.781,12.781,0,0,1-3.079-6.013q-.84-3.7,1.54-5.858t11.334-5.551a135.6,135.6,0,0,1,16.513-4.933q8.123-1.851,14.694-3.084t14.694-2.158q1.4-6.779,2.519-11.255t2.519-9.25a45.561,45.561,0,0,1,2.8-7.555q1.4-3.389,2.238-4.008t3.639-.617a12.6,12.6,0,0,1,5.738,3.392q2.937,2.775.7,4.317-.84.31-2.1,4.008a79.059,79.059,0,0,0-2.239,8.017q-.984,4.322-1.679,7.863t-.7,3.854q2.795,0,6.577-.154t8.537-.154q2.793,0,8.4.154t12.315.925q6.715.774,13.853,2.313a79.588,79.588,0,0,1,12.875,3.854,28.615,28.615,0,0,1,9.376,5.859,11.443,11.443,0,0,1,3.638,8.479q0,3.7-1.679,3.7a4.511,4.511,0,0,1-2.239-.926,27.672,27.672,0,0,0-9.8-6.629,65.819,65.819,0,0,0-13.434-4.008,117.6,117.6,0,0,0-14.834-1.851q-7.555-.462-14.273-.462-9.237,0-15.394.462t-6.157.771a150.282,150.282,0,0,0-2.8,17.885q-1.4,12.336-2.379,27.9t-1.4,32.839q-.42,17.273.14,32.993t2.239,28.214q1.679,12.488,5.038,18.655.839,2.154.279,2.775a3.439,3.439,0,0,1-1.959,1.388,8.9,8.9,0,0,1-2.8.462,5.381,5.381,0,0,1-2.239-.308q-3.924-.621-6.438-7.4a86.564,86.564,0,0,1-4.058-16.8q-1.542-10.017-2.239-21.893t-.84-23.126q-.144-11.253,0-20.351t.42-13.413q1.4-28.367,3.639-43.015t1.959-14.954q-10.076,1.85-17.353,3.391t-15.253,3.855A107.115,107.115,0,0,0,2204.879,1957.182Z" transform="translate(-1772.294 -1893.886)"/><path class="cls-2" d="M1923.128,1926.709a.73.73,0,0,1-.189-.505v-28.015a.733.733,0,0,1,.189-.505.619.619,0,0,1,.483-.21h11.634a10.207,10.207,0,0,1,5.23,1.409,10.442,10.442,0,0,1,3.822,3.828,10.45,10.45,0,0,1,0,10.474,10.427,10.427,0,0,1-3.822,3.828,10.2,10.2,0,0,1-5.23,1.409h-6.72v7.782a.73.73,0,0,1-.189.505.621.621,0,0,1-.483.21h-4.242A.619.619,0,0,1,1923.128,1926.709Zm12.117-13.923a4.726,4.726,0,0,0,3.445-1.41,4.638,4.638,0,0,0,1.428-3.428,4.879,4.879,0,0,0-4.873-4.879h-6.72v9.717Z" transform="translate(-1772.294 -1893.886)"/><path class="cls-2" d="M1955.805,1926.709a.73.73,0,0,1-.189-.505v-28.015a.733.733,0,0,1,.189-.505.621.621,0,0,1,.483-.21h11.635a10.2,10.2,0,0,1,5.229,1.409,10.452,10.452,0,0,1,3.823,3.828,10.25,10.25,0,0,1,1.407,5.237q0,5.931-5.671,9.338l5.041,8.581a.491.491,0,0,1,.084.337.717.717,0,0,1-.672.715h-4.873a.759.759,0,0,1-.63-.337l-4.788-8.16h-5.67v7.782a.73.73,0,0,1-.189.505.622.622,0,0,1-.483.21h-4.243A.621.621,0,0,1,1955.805,1926.709Zm12.118-13.923a4.811,4.811,0,0,0,4.831-4.838,4.74,4.74,0,0,0-1.408-3.449,4.623,4.623,0,0,0-3.423-1.43h-6.72v9.717Z" transform="translate(-1772.294 -1893.886)"/><path class="cls-2" d="M1992.537,1926.414a.621.621,0,0,1-.673.505H1987.5a.58.58,0,0,1-.546-.3.572.572,0,0,1-.126-.631l8.821-28.014a.7.7,0,0,1,.672-.505h4.62a.7.7,0,0,1,.672.505l8.821,28.014a.609.609,0,0,1,.042.253.525.525,0,0,1-.168.378.58.58,0,0,1-.546.3h-4.369a.729.729,0,0,1-.42-.147.572.572,0,0,1-.252-.358l-1.176-3.744h-9.828Zm9.24-9.338-3.15-10.011-3.15,10.011Z" transform="translate(-1772.294 -1893.886)"/><path class="cls-2" d="M2024.732,1915.793a8.912,8.912,0,0,0,2,3.05h.042a9.365,9.365,0,0,0,6.594,2.734,9.528,9.528,0,0,0,3.612-.715,6.267,6.267,0,0,0,1.344-.715.689.689,0,0,1,.378-.085.611.611,0,0,1,.505.211l3.108,3.112a.483.483,0,0,1,.21.547.646.646,0,0,1-.294.547,16.2,16.2,0,0,1-3.067,1.725,15.145,15.145,0,0,1-5.8,1.135,14.8,14.8,0,0,1-5.754-1.156,15.439,15.439,0,0,1-4.915-3.26v-.043a14.649,14.649,0,0,1-3.3-4.879,15.163,15.163,0,0,1,0-11.609,14.673,14.673,0,0,1,3.3-4.88v-.042a15.456,15.456,0,0,1,4.915-3.26,14.8,14.8,0,0,1,5.754-1.157,15.146,15.146,0,0,1,5.8,1.136,16.259,16.259,0,0,1,3.067,1.725.648.648,0,0,1,.294.547v.126a.453.453,0,0,1-.21.42l-3.108,3.113a.608.608,0,0,1-.505.211.68.68,0,0,1-.378-.085,9.19,9.19,0,0,0-1.344-.715,9.547,9.547,0,0,0-3.612-.715,9.36,9.36,0,0,0-6.594,2.735h-.042a8.918,8.918,0,0,0-2,3.049,9.666,9.666,0,0,0,0,7.193Z" transform="translate(-1772.294 -1893.886)"/><path class="cls-2" d="M2065.936,1926.709a.622.622,0,0,1-.483.21h-4.2a.621.621,0,0,1-.483-.21.73.73,0,0,1-.189-.505v-23.135h-7.308a.618.618,0,0,1-.483-.211.727.727,0,0,1-.189-.5v-4.165a.733.733,0,0,1,.189-.505.621.621,0,0,1,.483-.21h20.119a.657.657,0,0,1,.714.715v4.165a.719.719,0,0,1-.714.715h-7.266V1926.2A.73.73,0,0,1,2065.936,1926.709Z" transform="translate(-1772.294 -1893.886)"/><path class="cls-2" d="M2089.813,1897.684a.693.693,0,0,1,.21.505V1926.2a.717.717,0,0,1-.714.715h-4.2a.717.717,0,0,1-.714-.715v-28.015a.717.717,0,0,1,.714-.715h4.2A.687.687,0,0,1,2089.813,1897.684Z" transform="translate(-1772.294 -1893.886)"/><path class="cls-2" d="M2107.012,1915.793a8.927,8.927,0,0,0,1.995,3.05h.043a9.365,9.365,0,0,0,6.594,2.734,9.528,9.528,0,0,0,3.612-.715,6.267,6.267,0,0,0,1.344-.715.687.687,0,0,1,.378-.085.607.607,0,0,1,.5.211l3.108,3.112a.483.483,0,0,1,.211.547.644.644,0,0,1-.3.547,16.167,16.167,0,0,1-3.066,1.725,15.145,15.145,0,0,1-5.8,1.135,14.8,14.8,0,0,1-5.754-1.156,15.439,15.439,0,0,1-4.915-3.26v-.043a14.649,14.649,0,0,1-3.3-4.879,15.163,15.163,0,0,1,0-11.609,14.673,14.673,0,0,1,3.3-4.88v-.042a15.456,15.456,0,0,1,4.915-3.26,14.8,14.8,0,0,1,5.754-1.157,15.146,15.146,0,0,1,5.8,1.136,16.222,16.222,0,0,1,3.066,1.725.647.647,0,0,1,.3.547v.126a.452.452,0,0,1-.211.42l-3.108,3.113a.6.6,0,0,1-.5.211.678.678,0,0,1-.378-.085,9.19,9.19,0,0,0-1.344-.715,9.547,9.547,0,0,0-3.612-.715,9.36,9.36,0,0,0-6.594,2.735h-.043a8.932,8.932,0,0,0-1.995,3.049,9.679,9.679,0,0,0,0,7.193Z" transform="translate(-1772.294 -1893.886)"/><path class="cls-2" d="M2140.635,1926.414a.621.621,0,0,1-.672.505h-4.368a.579.579,0,0,1-.546-.3.572.572,0,0,1-.126-.631l8.82-28.014a.7.7,0,0,1,.672-.505h4.62a.707.707,0,0,1,.673.505l8.82,28.014a.593.593,0,0,1,.042.253.521.521,0,0,1-.168.378.58.58,0,0,1-.546.3h-4.368a.727.727,0,0,1-.42-.147.565.565,0,0,1-.252-.358l-1.176-3.744h-9.829Zm9.24-9.338-3.15-10.011-3.15,10.011Z" transform="translate(-1772.294 -1893.886)"/><path class="cls-2" d="M2169.049,1926.709a.73.73,0,0,1-.189-.505v-28.015a.733.733,0,0,1,.189-.505.621.621,0,0,1,.483-.21h4.2a.717.717,0,0,1,.714.715v23.135h11.215a.622.622,0,0,1,.483.211.727.727,0,0,1,.189.5v4.165a.73.73,0,0,1-.189.505.621.621,0,0,1-.483.21h-16.129A.621.621,0,0,1,2169.049,1926.709Z" transform="translate(-1772.294 -1893.886)"/><path class="cls-3" d="M2345.53,2024.939c-1.656-1.657.266-3.711,4.574-3.049a8.642,8.642,0,0,1,7.158-4.241,11.192,11.192,0,0,1,7.556,2.717,5.3,5.3,0,0,1,4.971-.6c2.717,1.126,3.91,5.434,0,6.826a6.006,6.006,0,0,1-6.5-1.856,5.19,5.19,0,0,1-4.676,1.657c-3.078-.4-6.26-2.12-6.724-2.12C2350.3,2024.277,2347.187,2026.6,2345.53,2024.939Z" transform="translate(-1772.294 -1893.886)"/><path class="cls-3" d="M2302.847,2036.8c-1.856,1.856-6.3,1.061-9.014.464s-6.959,1.989-9.014,1.657-1.646-3.369,0-5.015,4.308-.221,7.092-2.408,3.446-1.723,6.827-1.193,2.054,3.248,5.037,2.187,5.567,1.723,3.513,4.308S2302.847,2036.8,2302.847,2036.8Z" transform="translate(-1772.294 -1893.886)"/><path class="cls-3" d="M2290.32,2004.194c-.4,1.061-3.851-.066-6.068,1.061s-10.983-1.056-6.127-2.453c3.454-.993,3.778-.265,5.3-1.789s1.127-2.386,3.844-1.856,4.342,1.425,1.724,4.043C2289,2003.2,2290.717,2003.134,2290.32,2004.194Z" transform="translate(-1772.294 -1893.886)"/><path class="cls-3" d="M2269.244,2002.007c0-1.193,2.816-2.088,3.91-.994,1.513,1.512,3.308.414,2.452,1.27S2269.244,2003.2,2269.244,2002.007Z" transform="translate(-1772.294 -1893.886)"/><path class="cls-3" d="M2344.028,1969.287c-.884-2.032,5.126-1.5,10.428,11.047C2354.456,1980.334,2345,1971.5,2344.028,1969.287Z" transform="translate(-1772.294 -1893.886)"/><path class="cls-3" d="M2358.617,1986.238s9.455,8.837,10.427,11.047C2369.928,1999.317,2363.919,1998.787,2358.617,1986.238Z" transform="translate(-1772.294 -1893.886)"/><path class="cls-3" d="M2354.876,1981.593s3.513-1.79,4.9-1.79,1.392,1.127,1.392,1.657-3.413,4.143-3.711,4.441C2356.685,1986.677,2355.837,1982.554,2354.876,1981.593Z" transform="translate(-1772.294 -1893.886)"/><path class="cls-3" d="M2349.861,1980.776c-1.451,0-4.6,1.373-8.37,3.342-2.342-.621-6.546-1.547-8.343-.757-.124.054-12.31,5.526-13.249,8.342-.462,1.388-1.785,4.867-2.622,7.049-5.42,4-28.875,21.084-33.85,21.084-5.634,0-8.064-5.921-9.919-7.777s-6.54-1.06-7.777.177c0,1.374,4.168,9.586,8.6,14.481-2.575,1.611-6.3,4.037-5.949,4.386.3.3,4.268-1.309,7.6-2.741a10.457,10.457,0,0,0,2.127,1.5c5.479,2.784,26.335-6.849,29.922-8.616,1.293-.637,7.345-3.733,14.7-7.7-2.338,8.528-9.1,25.016-10.338,26.254-1.5,1.5,6.731,2.135,9.721-.854,2.936-2.936,14.081-26.538,18.134-35.234,7.462-4.426,13.577-8.5,14.74-10.572C2358.168,1987.492,2354.986,1980.776,2349.861,1980.776Zm-45.895,29.839a76.217,76.217,0,0,1-17.082,10.639.414.414,0,0,1-.418-.715c2.723-1.955,5.9-3.244,8.846-4.819a78.114,78.114,0,0,0,8.554-5.235C2303.942,2010.431,2304.037,2010.554,2303.966,2010.615Zm7.049,5.37a9.543,9.543,0,0,1-5.332,3.99.694.694,0,0,1-.369-1.338c2.006-.67,3.485-2.1,5.361-2.993C2310.878,2015.548,2311.172,2015.762,2311.015,2015.985Zm28.371-30.742c-7.53,4.106-16.595,9.854-19.8,11.909.715-1.886,1.479-3.932,1.817-4.946.456-1.367,7.754-5.353,12.38-7.389C2334.719,1984.407,2337.106,1984.737,2339.386,1985.243Zm11.227,3.355c2.032-1.954,5.137,1.148,3.09,3.09a75.017,75.017,0,0,1-15.747,11.265c-2.908,1.586-5.951,2.9-8.944,4.317-2.967,1.4-5.678,3.292-8.615,4.7a.1.1,0,0,1-.126-.163,55.456,55.456,0,0,1,6.408-4.974c2.661-1.978,5.21-4.141,7.944-6.015C2340.178,1997.013,2345.743,1993.282,2350.613,1988.6Z" transform="translate(-1772.294 -1893.886)"/><path class="cls-3" d="M2309.674,2003.4h-9.014s-2.784-3.314-2.784-3.844,20.082-5.1,20.082-5.1l-1.922,4.549Z" transform="translate(-1772.294 -1893.886)"/><path class="cls-3" d="M2215.455,2056.213c.462-.833.694-1.285.694-1.285l-.962,1.1c-.624.715-1.565,1.741-2.774,3.02s-2.733,2.777-4.522,4.424c-.895.823-1.875,1.665-2.913,2.54-.51.446-.966.971-1.483,1.458s-1.054.977-1.61,1.468a72.545,72.545,0,0,1-16.806,11.192,64.243,64.243,0,0,1-10.66,3.986,51.738,51.738,0,0,1-11.527,1.849,30.165,30.165,0,0,1-11.29-1.468,13.145,13.145,0,0,1-4.531-2.658,6.955,6.955,0,0,1-2.216-4.106c-.028-.191-.049-.384-.059-.579-.008-.1-.012-.192-.012-.277s-.006-.171,0-.3a8.629,8.629,0,0,1,.106-1.188,6.782,6.782,0,0,1,3.851-5.129,9.685,9.685,0,0,1,4.217-.99,7.894,7.894,0,0,1,3.865.862,9.675,9.675,0,0,1,1.484.911,4.289,4.289,0,0,1,1.048,1.23,5.261,5.261,0,0,1,.55,3.179,2.392,2.392,0,0,1-1.293,2.146,4.854,4.854,0,0,1-2.565.254,15.923,15.923,0,0,1-3.874-1.059c-.878-.347-1.331-.578-1.331-.578s.4.307,1.217.807a16.175,16.175,0,0,0,3.807,1.733,7.935,7.935,0,0,0,1.466.269,4.8,4.8,0,0,0,1.743-.157,3.513,3.513,0,0,0,1.724-1.135,4.892,4.892,0,0,0,.937-1.947,7.462,7.462,0,0,0-.08-4.506,6.973,6.973,0,0,0-1.328-2.253,6.7,6.7,0,0,0-2.121-1.652,12.324,12.324,0,0,0-5.279-1.11,12.671,12.671,0,0,0-5.533,1.308,9.777,9.777,0,0,0-5.472,7.333,11.557,11.557,0,0,0-.144,1.6c0,.217,0,.581.017.833.015.275.045.552.084.828a9.558,9.558,0,0,0,1.061,3.2,10.7,10.7,0,0,0,2.062,2.654,16.069,16.069,0,0,0,5.566,3.3,27.416,27.416,0,0,0,6.17,1.422,39.637,39.637,0,0,0,6.271.228,54.709,54.709,0,0,0,12.2-1.953,67.208,67.208,0,0,0,11.161-4.172,75.513,75.513,0,0,0,17.506-11.656c.578-.51,1.134-1.022,1.674-1.525s1.1-.961,1.571-1.485c.921-1.067,1.752-2.114,2.515-3.107,1.529-1.983,2.745-3.788,3.7-5.3S2214.991,2057.045,2215.455,2056.213Z" transform="translate(-1772.294 -1893.886)"/><path class="cls-3" d="M2233.528,2058.79c-.012-1.229-.079-2.2-.116-2.854s-.084-1.008-.084-1.008l-.321.955c-.214.617-.529,1.521-.93,2.672s-.918,2.524-1.51,4.092c-.3.784-.614,1.616-.962,2.485a5.337,5.337,0,0,0-.357,1.376c-.09.478-.223.956-.342,1.449a93.19,93.19,0,0,1-4.306,13.1,62.4,62.4,0,0,1-3.394,6.917,42.754,42.754,0,0,1-4.473,6.437c-.214.242-.428.5-.641.729s-.406.453-.658.706l-.359.369-.09.093-.067.065-.173.167q-.342.339-.7.655a17.6,17.6,0,0,1-2.937,2.2,8.072,8.072,0,0,1-3.014,1.088,3.952,3.952,0,0,1-2.559-.523,5.305,5.305,0,0,1-1.855-2.033,8.723,8.723,0,0,1-.939-2.8,7.987,7.987,0,0,1,.765-5.166,2.993,2.993,0,0,1,.669-.8,3.506,3.506,0,0,0,.333-.347c.058-.07.083-.1.122-.157a.362.362,0,0,1,.066-.084l.137-.115.136-.114.017-.014c.018-.012-.1.055-.042.021l.032-.024.063-.048.252-.189c.166-.13.333-.245.5-.357s.33-.224.493-.321.323-.2.482-.288a6.676,6.676,0,0,1,1.816-.722,2.774,2.774,0,0,1,1.524.083,2.39,2.39,0,0,1,.617.331,3.084,3.084,0,0,1,.506.437,4.605,4.605,0,0,1,.656.919,4.911,4.911,0,0,1,.4.906s.011-.088.017-.259a4.8,4.8,0,0,0-.033-.766,5.213,5.213,0,0,0-.31-1.243,3.786,3.786,0,0,0-1.079-1.53,4.519,4.519,0,0,0-2.258-.993,8.13,8.13,0,0,0-2.779.115c-.241.041-.476.1-.713.159s-.477.128-.713.2-.482.151-.717.241l-.36.132-.091.033-.046.017c.044-.027-.086.046-.08.042l-.02.008-.165.067-.166.068c-.057.024-.152.079-.226.118a4.863,4.863,0,0,0-.456.271,3.979,3.979,0,0,0-.754.631,10.561,10.561,0,0,0-1.155,1.605,10.409,10.409,0,0,0-1.28,3.717,13.108,13.108,0,0,0,.028,4.026,12.528,12.528,0,0,0,1.371,4.055,9.146,9.146,0,0,0,3.242,3.477,7.861,7.861,0,0,0,4.984,1.055,11.892,11.892,0,0,0,4.517-1.581,21.423,21.423,0,0,0,3.6-2.682c.275-.245.542-.5.8-.753l.2-.191.206-.207.359-.37c.233-.232.5-.534.748-.8s.48-.547.721-.82a46.6,46.6,0,0,0,4.883-7.02,66.454,66.454,0,0,0,3.607-7.345,96.909,96.909,0,0,0,4.489-13.651c.133-.508.24-1.01.381-1.492a5.3,5.3,0,0,0,.3-1.44c.064-.965.119-1.878.152-2.737C2233.552,2061.518,2233.547,2060.02,2233.528,2058.79Z" transform="translate(-1772.294 -1893.886)"/></svg>