<svg id="Layer_1" data-name="Layer 1" xmlns="http://www.w3.org/2000/svg" viewBox="0 0 135.407 130.612"><defs><style>.cls-1{fill:#addbc7;}</style></defs><path class="cls-1" d="M1601.837,880.712c-.043-.038-.088-.075-.134-.111-1.38-1.145-2.761-2.374-4.031-3.644a2.065,2.065,0,1,0-2.913,2.927,52.929,52.929,0,0,0,4.307,3.906,2.071,2.071,0,1,0,2.771-3.078Z" transform="translate(-1576.012 -767.7)"/><path class="cls-1" d="M1580.166,819.324a2.073,2.073,0,0,0-2.745,1.767c-.414,1.891-.731,3.81-.966,5.729a2.071,2.071,0,0,0,1.753,2.319h.262a2.07,2.07,0,0,0,2.057-1.822c.221-1.795.525-3.6.911-5.356A2.069,2.069,0,0,0,1580.166,819.324Z" transform="translate(-1576.012 -767.7)"/><path class="cls-1" d="M1591.543,869.737c-1.063-1.463-2.071-2.981-3-4.527a2.071,2.071,0,0,0-2.838-.722l-.005,0a2.07,2.07,0,0,0-.721,2.838l0,.006c.994,1.656,2.071,3.285,3.216,4.845a2.071,2.071,0,0,0,3.341-2.444Z" transform="translate(-1576.012 -767.7)"/><path class="cls-1" d="M1584.323,856.679c-.662-1.671-1.27-3.4-1.78-5.136a2.071,2.071,0,0,0-2.566-1.411l-.057.017a2.071,2.071,0,0,0-1.381,2.568c.553,1.85,1.188,3.7,1.9,5.522a2.09,2.09,0,0,0,3.879-1.56Z" transform="translate(-1576.012 -767.7)"/><path class="cls-1" d="M1585.559,805.127a2.071,2.071,0,0,0-2.782.918c-.869,1.725-1.67,3.506-2.374,5.314a2.067,2.067,0,0,0,3.847,1.516l0-.011a49.885,49.885,0,0,1,2.223-4.956A2.072,2.072,0,0,0,1585.559,805.127Z" transform="translate(-1576.012 -767.7)"/><path class="cls-1" d="M1580.6,842.273v-.006c-.221-1.794-.372-3.616-.442-5.411a2.072,2.072,0,1,0-4.141.152,45.287,45.287,0,0,0,.47,5.8,2.069,2.069,0,0,0,2,1.78h.318A2.071,2.071,0,0,0,1580.6,842.273Z" transform="translate(-1576.012 -767.7)"/><path class="cls-1" d="M1635.53,773.2a2.079,2.079,0,0,0-2.27-1.87c-1.919.193-3.852.469-5.757.842a2.08,2.08,0,1,0,.387,4.141l-.014-.055h.4c1.781-.345,3.589-.607,5.384-.787A2.079,2.079,0,0,0,1635.53,773.2Z" transform="translate(-1576.012 -767.7)"/><path class="cls-1" d="M1594.552,792.6a2.083,2.083,0,0,0-2.94.18c-1.27,1.449-2.485,2.981-3.617,4.555a2.071,2.071,0,0,0,1.671,3.286v.027a2.068,2.068,0,0,0,1.684-.856c1.063-1.463,2.2-2.9,3.382-4.251A2.084,2.084,0,0,0,1594.552,792.6Z" transform="translate(-1576.012 -767.7)"/><path class="cls-1" d="M1649.176,771.672c-1.9-.29-3.852-.5-5.784-.607a2.074,2.074,0,1,0-.249,4.141c1.823.138,3.631.331,5.412.607h.317a2.076,2.076,0,1,0,.3-4.141Z" transform="translate(-1576.012 -767.7)"/><path class="cls-1" d="M1606.312,782.733a2.072,2.072,0,0,0-2.787-.515c-1.587,1.091-3.147,2.278-4.638,3.507a2.073,2.073,0,0,0,2.65,3.189c1.381-1.16,2.844-2.264,4.335-3.286A2.07,2.07,0,0,0,1606.312,782.733Z" transform="translate(-1576.012 -767.7)"/><path class="cls-1" d="M1613.257,781.059l-.02,0-.021,0Z" transform="translate(-1576.012 -767.7)"/><path class="cls-1" d="M1620.559,776.209a2.072,2.072,0,0,0-2.546-1.449,2.231,2.231,0,0,0-.284.1,52.06,52.06,0,0,0-5.356,2.25,2.06,2.06,0,1,0,1.726,3.741c1.629-.773,3.313-1.477,5.011-2.1A2.071,2.071,0,0,0,1620.559,776.209Z" transform="translate(-1576.012 -767.7)"/><path class="cls-1" d="M1645.594,895.986a2.075,2.075,0,0,0-2.2-1.939,51.175,51.175,0,0,1-5.439.124,2.071,2.071,0,1,0-.11,4.141h1.753c1.38,0,2.761,0,4.058-.124A2.075,2.075,0,0,0,1645.594,895.986Z" transform="translate(-1576.012 -767.7)"/><path class="cls-1" d="M1699.789,848.016a2.073,2.073,0,0,0-2.519,1.5c-.442,1.753-.98,3.493-1.588,5.191a2.067,2.067,0,0,0,3.9,1.359l0-.007c.649-1.822,1.215-3.685,1.7-5.521A2.074,2.074,0,0,0,1699.789,848.016Z" transform="translate(-1576.012 -767.7)"/><path class="cls-1" d="M1702.433,824.308c-.318-1.9-.718-3.824-1.2-5.688a2.071,2.071,0,0,0-4,1.049c.456,1.74.829,3.534,1.132,5.315a2.071,2.071,0,0,0,2.016,1.7h.345A2.071,2.071,0,0,0,1702.433,824.308Z" transform="translate(-1576.012 -767.7)"/><path class="cls-1" d="M1711.233,800.541a2.015,2.015,0,0,0-.393-.57l-3.659-3.81a2,2,0,0,0-2-.5l-6.6,2-7.73-8.2L1708.2,779.8a2.015,2.015,0,0,0,.593-3.244l-4.872-4.873a2.018,2.018,0,0,0-2-.469l-21.99,6.654-7.4-7.855a6.7,6.7,0,0,0-7.62-1.808h-.125a8.147,8.147,0,0,0-4.431,4.431,7.479,7.479,0,0,0-.441,1.629l-.842-.29a2.074,2.074,0,1,0-1.27,3.948c1.062.345,2.125.732,3.188,1.132a7.973,7.973,0,0,0,1.118,1.38l7.8,7.4-2.236,7.386a48.645,48.645,0,1,0,10.284,9.911l3.534-6.378,8.2,7.731-1.974,6.529a2,2,0,0,0,.484,2.043s4.044,4,4.141,4.141a2,2,0,0,0,2.735-.727c.009-.015.018-.03.026-.046l5.4-9.9,9.746-5.315A2.015,2.015,0,0,0,1711.233,800.541Zm-103.07,2.729a44.326,44.326,0,0,1,31.377-12.976q1.381,0,2.761.083c7.827,7.219,5.522,13.8.276,19.74a96.758,96.758,0,0,1-9.939,9.166c-5.093,4.334-9.842,8.379-11.637,12.424-2.126,4.8-.566,9.152,8.021,12.948,4.293,1.9,6.626,3.382,7.537,4.5a.177.177,0,0,0,.04.038l-.1.031a17.155,17.155,0,0,1-6.516,1.119c-10.409.441-17.821-6.212-23.578-11.361-4.141-3.686-7.578-6.751-11.154-6.778A44.331,44.331,0,0,1,1608.163,803.27Zm75.91,31.446h.014A44.506,44.506,0,0,1,1653.428,877a14.478,14.478,0,0,1,1.7-9.4,34.228,34.228,0,0,1,8.283-9.111c12.741-10.629,13.459-16.565,14.011-21.134.345-2.885.608-5.039,6.309-8.172A44.922,44.922,0,0,1,1684.073,834.716Zm-2.568-14.936a44.166,44.166,0,0,1,1.519,5.314c-8.683,4.418-9.07,7.565-9.594,11.858-.469,3.866-1.077,8.918-12.59,18.526a37.759,37.759,0,0,0-9.248,10.256,18.3,18.3,0,0,0-2.071,12.327,44.474,44.474,0,0,1-54.361-41.785c2.195,0,5.038,2.609,8.531,5.715,6.322,5.646,14.411,12.852,26.463,12.424a20.707,20.707,0,0,0,8.282-1.574,4.145,4.145,0,0,0,2.292-2.6,3.948,3.948,0,0,0-.994-3.6c-1.3-1.588-4.142-3.465-9.028-5.646-5.839-2.581-7.109-5.094-5.964-7.661,1.381-3.231,5.826-6.9,10.547-11.044a100.467,100.467,0,0,0,10.367-9.663c5.77-6.571,8.738-13.735,2.871-21.576a44.183,44.183,0,0,1,17.946,8.158l-3.175,10.478a2.014,2.014,0,0,0,.483,2.043s5.149,5.108,5.314,5.2a2,2,0,0,0,2.736-.728l.025-.045,4.017-7.261A44.327,44.327,0,0,1,1681.505,819.78Zm18.512-15.42-1.781.884a1.992,1.992,0,0,0-.911.925l-.883,1.794L1693,814.175l-1.007-1.1,2-6.612a2,2,0,0,0-.649-2.126l-10.891-10.257a2,2,0,0,0-2.831.025l-.054.058c-.138.152-9.939,17.808-9.939,17.808l-2.14-2.14,6.681-22.018a2,2,0,0,0-.648-2.14l-8.67-8.158a2.871,2.871,0,0,1-.786-3.313,4.33,4.33,0,0,1,2.25-2.236h.069a2.871,2.871,0,0,1,3.23.828l8.283,8.752a2,2,0,0,0,2.043.552l22.086-6.667,2.14,2.139-17.531,9.636a2,2,0,0,0-.8,2.715l.026.046c.082.151,10.643,11.388,10.643,11.388a2,2,0,0,0,2.043.539l6.64-2,1.035,1.035Z" transform="translate(-1576.012 -767.7)"/><path class="cls-1" d="M1694.684,862.569c-.03-.018-.061-.035-.092-.051a2.07,2.07,0,0,0-2.761.815c-.87,1.587-1.822,3.147-2.844,4.638a2.076,2.076,0,0,0,3.4,2.388c1.077-1.6,2.1-3.272,3.037-4.956A2.07,2.07,0,0,0,1694.684,862.569Z" transform="translate(-1576.012 -767.7)"/><path class="cls-1" d="M1701.232,832.342a2.07,2.07,0,0,0-2.1,2.042q0,.042,0,.084v.234c0,1.809-.082,3.631-.248,5.439a2.07,2.07,0,0,0,1.874,2.25h.2a2.069,2.069,0,0,0,2.084-1.919c.18-1.918.262-3.865.262-5.8V834.4A2.069,2.069,0,0,0,1701.232,832.342Z" transform="translate(-1576.012 -767.7)"/><path class="cls-1" d="M1628.525,893.136a42.713,42.713,0,0,1-5.3-1.215,2.071,2.071,0,1,0-1.374,3.907,2.024,2.024,0,0,0,.242.069c1.85.525,3.755.98,5.66,1.38h.386a2.08,2.08,0,1,0,.387-4.141Z" transform="translate(-1576.012 -767.7)"/><path class="cls-1" d="M1660.563,892.507a2.07,2.07,0,0,0-2.511-1.276v.055a41.277,41.277,0,0,1-5.232,1.381,2.073,2.073,0,1,0,.911,4.044c1.878-.428,3.769-.952,5.605-1.546A2.07,2.07,0,0,0,1660.563,892.507Z" transform="translate(-1576.012 -767.7)"/><path class="cls-1" d="M1614.32,888.622c-1.643-.815-3.258-1.7-4.818-2.582a2.073,2.073,0,0,0-2.1,3.576c1.67.98,3.4,1.891,5.149,2.761a2.075,2.075,0,1,0,1.767-3.755Z" transform="translate(-1576.012 -767.7)"/><path class="cls-1" d="M1685.887,875.3a2.071,2.071,0,0,0-2.891.1h.014a50.346,50.346,0,0,1-3.893,3.8,2.073,2.073,0,0,0,2.761,3.092c1.381-1.284,2.844-2.65,4.141-4.059A2.07,2.07,0,0,0,1685.887,875.3Z" transform="translate(-1576.012 -767.7)"/><path class="cls-1" d="M1674.462,885.63a2.071,2.071,0,0,0-2.84-.714c-.033.019-.065.04-.1.062v-.055c-1.519.966-3.106,1.877-4.707,2.76a2.071,2.071,0,1,0,1.891,3.686c1.712-.883,3.41-1.863,5.038-2.9A2.07,2.07,0,0,0,1674.462,885.63Z" transform="translate(-1576.012 -767.7)"/></svg>