<svg id="Layer_1" data-name="Layer 1" xmlns="http://www.w3.org/2000/svg" viewBox="0 0 21.652 21.24"><defs><style>.cls-1{opacity:0.1;}.cls-2{fill:#fff;}</style></defs><g class="cls-1"><path class="cls-2" d="M1848.611-723.486l-2.274,2.231-5.5-5.395a9.03,9.03,0,0,1-5.023,1.529,8.769,8.769,0,0,1-8.856-8.687,8.77,8.77,0,0,1,8.856-8.688,8.769,8.769,0,0,1,8.855,8.688,8.512,8.512,0,0,1-1.558,4.906Zm-12.8-16.121a5.849,5.849,0,0,0-5.911,5.8,5.845,5.845,0,0,0,5.911,5.777,5.841,5.841,0,0,0,5.89-5.777A5.845,5.845,0,0,0,1835.815-739.607Z" transform="translate(-1826.959 742.496)"/></g></svg>