<svg id="Layer_1" data-name="Layer 1" xmlns="http://www.w3.org/2000/svg" viewBox="0 0 41.442 40.699"><defs><style>.cls-1{fill:#fff;}.cls-2{fill:#ffe3a3;}</style></defs><circle class="cls-1" cx="20.251" cy="22.655" r="18.043"/><path class="cls-2" d="M11.736-57.2A20.318,20.318,0,0,1,32.454-37.285,20.319,20.319,0,0,1,13.62-16.617V-30.774H18.8l.77-6.217H13.62v-2.856a4.711,4.711,0,0,1,.257-1.891,2.53,2.53,0,0,1,2.14-.84h3.3v-6.049H13.624a9.707,9.707,0,0,0-3.6.63c-2.567.966-3.895,3.4-3.895,7.267v3.739H2.406v6.217H6.129v13.485A20.294,20.294,0,0,1-8.3-42.094,20.294,20.294,0,0,1,11.736-57.2Z" transform="translate(8.983 57.201)"/></svg>