<svg id="Layer_1" data-name="Layer 1" xmlns="http://www.w3.org/2000/svg" viewBox="0 0 78.288 62.754"><defs><style>.cls-1{fill:#fff;}</style></defs><path class="cls-1" d="M1211.38-223.572a1.345,1.345,0,0,1-.432,1.444,2.231,2.231,0,0,1-1.3.424q-1.3,0-1.558-.679a10.371,10.371,0,0,1-.345-2.378q-.176-2.037-.3-5.222t-.13-7.431q0-4.245.26-9.086l-7.313.34a66.592,66.592,0,0,0-7.311.764v6.327q0,1.911.13,3.948t.389,3.737l.173.849a2.268,2.268,0,0,1-1.9.679c-.809,0-1.3-.254-1.471-.764a10.49,10.49,0,0,1-.519-3.015q-.176-2.248-.346-4.713-.089-2.8-.173-6.2a6.874,6.874,0,0,0-1.082.254q-.908.255-2.076.68t-2.38.976a22.764,22.764,0,0,0-2.077,1.062l-.606.849q0,.849-.345.849a1.044,1.044,0,0,1-.737-.467,2.883,2.883,0,0,1-.562-1.146,3.342,3.342,0,0,1-.043-.934,1.629,1.629,0,0,1,.217-.765,5.169,5.169,0,0,1,2.076-1.656,25.637,25.637,0,0,1,3.245-1.4q1.688-.592,4.283-1.359.173-7.812.606-14.351.172-2.8.389-5.519t.52-5.053q.3-2.334.692-4.076a8.292,8.292,0,0,1,.821-2.42,1.66,1.66,0,0,1,1.3-.594,2.8,2.8,0,0,1,1.644.552q.778.552.432,1.061a5.8,5.8,0,0,0-.605,2.038q-.259,1.529-.52,3.694t-.475,4.8q-.217,2.632-.39,5.265-.347,6.285-.605,13.841.343-.083,3.98-.509t10.817-.51q0-3.481.475-8.152t1.169-9.468q.692-4.8,1.6-9.171t1.687-7.176a1.926,1.926,0,0,0,.173-.637c0-.14.2-.212.606-.212a3.246,3.246,0,0,1,1.774.595q.908.594.908,1.189-.866,3.226-1.644,8.066-.693,4.077-1.428,10.318t-1.341,14.988q1.472.171,2.769.424c.692.115,1.355.255,1.99.425a3.064,3.064,0,0,1,1.212.51,1.843,1.843,0,0,1,.345.636,3.691,3.691,0,0,1,.217.935,1.442,1.442,0,0,1-.13.806.5.5,0,0,1-.605.255l-2.942-.679a26.285,26.285,0,0,0-3.029-.51q-.174,2.464-.26,4.416t-.129,4.415q-.045,2.464-.043,4.968t.043,4.841Q1211.206-225.271,1211.38-223.572Z" transform="translate(-1179.306 284.203)"/><path class="cls-1" d="M1228.425-254.906a10.477,10.477,0,0,1-.562,2.5,13.821,13.821,0,0,1-1.211,2.632,7.623,7.623,0,0,1-1.732,2.038,3.2,3.2,0,0,1-2.033.807,2.519,2.519,0,0,1-1.125-.255l-.605-.255q0,.173-.043,1.274a7.844,7.844,0,0,0,.388,2.548,7.114,7.114,0,0,0,3.895-1.359q1.557-1.188,2.769-2.208c.056-.113.2-.17.432-.17a2.137,2.137,0,0,1,1.472.849q.777.851.691,1.274,0,.085-.388.425t-.866.764q-.477.426-1,.849a4.847,4.847,0,0,1-.865.595,7.125,7.125,0,0,1-3.98,1.189,6.08,6.08,0,0,1-2.64-.595,5,5,0,0,1-2.033-1.741,6.574,6.574,0,0,1-.995-2.972,11.636,11.636,0,0,1,.388-4.2,12.689,12.689,0,0,1,.822-2.335,24.821,24.821,0,0,1,1.558-2.973,13.243,13.243,0,0,1,1.99-2.547,3.173,3.173,0,0,1,2.207-1.062,2.722,2.722,0,0,1,1.255.34,3.767,3.767,0,0,1,1.168.976,4.832,4.832,0,0,1,.822,1.572A5.241,5.241,0,0,1,1228.425-254.906Zm-6.576,5.264a7.966,7.966,0,0,0,2.076-2.207,9.946,9.946,0,0,0,1.732-3.906q.171-.765,0-.765.084,0-.607.51a9.83,9.83,0,0,0-1.687,2.165q-.649,1.146-1.081,2.08a16.236,16.236,0,0,0-.693,2.208Z" transform="translate(-1179.306 284.203)"/><path class="cls-1" d="M1236.905-259.577q.259.681-.606.68a1.934,1.934,0,0,1-.605-.085q-.348-.17-.865,1.613a30.036,30.036,0,0,0-.867,4.458,57.723,57.723,0,0,0-.432,5.775,30.126,30.126,0,0,0,.346,5.732c.116.566.23,1.09.346,1.571s.231.721.347.721q.343,0,2.076-2.42a65.98,65.98,0,0,0,4.24-7.176q1.557-3.057,2.38-4.967t1.255-2.972a7.958,7.958,0,0,1,.735-1.486.959.959,0,0,1,.823-.425,3.6,3.6,0,0,1,2.6,1.1,1.115,1.115,0,0,1,.476.637,7.943,7.943,0,0,1-.086,1.443q-.13,1.147-.3,3.567t-.346,7.091q-.087,2.547-.173,4.628a37.864,37.864,0,0,1-.347,3.863,43.667,43.667,0,0,1-1.168,6.327,39.181,39.181,0,0,1-1.471,4.458,14.948,14.948,0,0,1-1.384,2.717,5.13,5.13,0,0,1-.909,1.1,1.96,1.96,0,0,1-.865.17,5.127,5.127,0,0,1-1.514-.255q-.823-.255-.909-.679a2.258,2.258,0,0,1,.346-.764,22.927,22.927,0,0,0,1.688-4.034,51.834,51.834,0,0,0,1.47-5.647q.649-3.139,1.039-6.793a68.967,68.967,0,0,0,.389-7.3q-.519.851-1.168,1.953t-1.385,2.293q-.735,1.19-1.557,2.335t-1.6,2.08a4.371,4.371,0,0,1-3.375,1.7,4.874,4.874,0,0,1-3.764-1.359,7.213,7.213,0,0,1-1.687-3.651,25.4,25.4,0,0,1-.476-5.69,50.034,50.034,0,0,1,.476-6.369,28.533,28.533,0,0,1,1.212-5.307q.777-2.249,1.9-2.5a5.034,5.034,0,0,1,2.12.552A3.457,3.457,0,0,1,1236.905-259.577Z" transform="translate(-1179.306 284.203)"/><path class="cls-1" d="M1254.556-276.646a1.366,1.366,0,0,1,.952-.254,3.1,3.1,0,0,1,1.428.382,1.146,1.146,0,0,1,.649,1.231q0,.427-.216,2.59t-.476,5.308q-.26,3.143-.562,6.836t-.52,7.26q-.216,3.567-.3,6.624t0,4.84c.057.509-.043.836-.3.976a1.4,1.4,0,0,1-.563.213,2.148,2.148,0,0,0-.39.042,1.913,1.913,0,0,1-.388.043q-1.386,0-1.645-1.614-.259-3.225-.216-7t.3-7.6q.259-3.822.606-7.346t.692-6.284q.343-2.759.605-4.458A9.776,9.776,0,0,1,1254.556-276.646Zm1.472,41.271a11.026,11.026,0,0,0-.563,3.821q.043,2.039.043,4.585,0,.51-.952.51a3.848,3.848,0,0,1-1.168-.212,1.828,1.828,0,0,1-.908-.552,2.734,2.734,0,0,1-.347-1.317q-.085-.974-.086-2.208t.086-2.5a9.632,9.632,0,0,1,.347-2.123,3.713,3.713,0,0,1,.26-.807,1.829,1.829,0,0,1,.345-.552,1.559,1.559,0,0,1,.693-.17,3.745,3.745,0,0,1,1.644.425Q1256.286-236.053,1256.028-235.375Z" transform="translate(-1179.306 284.203)"/></svg>