<svg id="Layer_1" data-name="Layer 1" xmlns="http://www.w3.org/2000/svg" viewBox="0 0 40.588 40.587"><defs><style>.cls-1{fill:#fff;}.cls-2{fill:#f3735d;}</style></defs><circle class="cls-1" cx="20.294" cy="19.6" r="18.043"/><path class="cls-2" d="M14.585-73.492A20.294,20.294,0,0,1,34.453-52.781a20.294,20.294,0,0,1-20.71,19.869A20.294,20.294,0,0,1-6.13-53.244a20.365,20.365,0,0,1,20.48-20.25Zm-12.8,23.02c0,.967.085,1.891.128,2.815a7.178,7.178,0,0,0,7.062,6.889c.9.042,1.884.084,2.826.084h2.824c.9,0,1.841.084,2.825,0,.942-.042,1.926-.042,2.868-.084a6.808,6.808,0,0,0,4.836-2.058,6.628,6.628,0,0,0,2.14-4.831c.086-1.806.129-3.7.129-5.587s-.086-3.781-.129-5.587a6.541,6.541,0,0,0-2.14-4.831,6.644,6.644,0,0,0-4.836-2.016c-1.027-.042-1.969-.084-2.953-.084h-5.65c-.985,0-1.926.084-2.868.084A6.917,6.917,0,0,0,4.054-63.7a7.056,7.056,0,0,0-2.141,4.789c-.043.84-.043,1.806-.128,2.773-.042.881-.042,1.848-.042,2.814s.05,1.89.05,2.856Zm2.44-8.359a5.3,5.3,0,0,1,1.412-3.277,5.473,5.473,0,0,1,3.338-1.344c.814-.042,1.755.042,2.654-.042.985-.042,1.927-.042,2.911-.042s1.926.042,2.868.042c.984,0,1.883,0,2.739.042a5.109,5.109,0,0,1,3.424,1.428A4.869,4.869,0,0,1,24.983-58.7c.086,1.638.129,3.444.129,5.461,0,1.932-.086,3.781-.129,5.546a4.333,4.333,0,0,1-1.412,3.276,5.277,5.277,0,0,1-3.424,1.386q-1.284.126-2.7.126H11.8c-.985,0-1.927-.042-2.783-.126a5.293,5.293,0,0,1-3.338-1.386,4.788,4.788,0,0,1-1.455-3.36c-.128-1.554-.171-3.488-.171-5.5.006-2.063.049-3.869.177-5.548ZM10-48.665a6.035,6.035,0,0,0,4.579,1.932,6.167,6.167,0,0,0,4.58-1.932,6.447,6.447,0,0,0-.245-9.115,6.447,6.447,0,0,0-9.115.245,6.451,6.451,0,0,0-1.768,4.37,6.472,6.472,0,0,0,1.973,4.5Zm1.584-7.519a4.291,4.291,0,0,1,5.991,0,4.1,4.1,0,0,1,1.2,3.024,3.73,3.73,0,0,1-1.2,2.856,4.189,4.189,0,0,1-5.925.067c-.022-.022-.045-.044-.066-.067a3.73,3.73,0,0,1-1.2-2.856,4.105,4.105,0,0,1,1.207-3.024ZM21.174-58.2c1.069,0,1.541-.5,1.541-1.47,0-1.051-.471-1.469-1.541-1.469-.985,0-1.5.418-1.5,1.469A1.322,1.322,0,0,0,20.826-58.2a1.29,1.29,0,0,0,.351,0Z" transform="translate(6.13 73.495)"/></svg>