<svg id="Layer_1" data-name="Layer 1" xmlns="http://www.w3.org/2000/svg" viewBox="0 0 82.832 31.277"><defs><style>.cls-1{opacity:0.05;}.cls-2{fill:#fff;}</style></defs><g class="cls-1"><path class="cls-2" d="M16.978,9.96a.231.231,0,0,1-.245.193q-.3,0-.638-.577A1.668,1.668,0,0,1,15.85,8.42a5.678,5.678,0,0,1,.564-1.01q.465-.721,1-1.444t.956-1.323c.278-.4.384-.617.319-.649-.033-.032-.18-.016-.441.047l-.785.193a16.1,16.1,0,0,0-3.211,1.348,28.307,28.307,0,0,0-3.384,2.165,36.985,36.985,0,0,0-3.261,2.719A30.992,30.992,0,0,0,4.763,13.5a19.453,19.453,0,0,0-2.109,3.127,10.036,10.036,0,0,0-1.073,2.958,2.751,2.751,0,0,0-.074.843,1.322,1.322,0,0,0,.123.6q.294.675,1.912,1.011a30.191,30.191,0,0,0,3.678.505q2.061.169,4.168.289a22.625,22.625,0,0,1,3.432.409,4.273,4.273,0,0,1,2.55,1.2,2.538,2.538,0,0,1,.736,1.419,1.965,1.965,0,0,1-.319,1.227,3.556,3.556,0,0,1-1.128,1.059q-.76.482-1.692.962a19.846,19.846,0,0,1-4.56,1.66,17.61,17.61,0,0,1-3.677.506,4.48,4.48,0,0,1-1.618-.265,2.178,2.178,0,0,1-1.128-1.179,1.735,1.735,0,0,1-.172-.7,1.974,1.974,0,0,1,.1-.77,1.557,1.557,0,0,1,.392-.625,1.039,1.039,0,0,1,.76-.265c.2,0,.409.169.638.5a1.767,1.767,0,0,1,.343.987c0,.129-.017.193-.049.193,0,.032.065.047.2.047h.343a5.46,5.46,0,0,0,.638-.047,18.1,18.1,0,0,0,3.7-.819,26.653,26.653,0,0,0,2.942-1.178,11.165,11.165,0,0,0,1.937-1.131q.686-.53.589-.578a7.253,7.253,0,0,0-2.477-.577q-1.595-.146-3.432-.241t-3.678-.264a14.275,14.275,0,0,1-3.261-.65,5.283,5.283,0,0,1-2.991-2.6A4.556,4.556,0,0,1,.04,18.44a9.909,9.909,0,0,1,1.153-3.3A22,22,0,0,1,4.6,10.377,36.5,36.5,0,0,1,9.136,6.214a29.16,29.16,0,0,1,4.708-3.007,11.433,11.433,0,0,1,3.922-1.3,4.708,4.708,0,0,1,1.153.121,1.757,1.757,0,0,1,.907.7,2.734,2.734,0,0,1,.515,1.227,2.475,2.475,0,0,1-.2,1.251,7.589,7.589,0,0,1-.833,1.443q-.564.793-1.348,1.805c-.327.449-.557.778-.687.986S17.043,9.833,16.978,9.96Z" transform="translate(-0.002 0.003)"/><path class="cls-2" d="M25.951,23.963a1.441,1.441,0,0,1-.981-.409,1.7,1.7,0,0,1-.441-.89,6.473,6.473,0,0,1-.1-1.179V20.162l-.2.24a6.66,6.66,0,0,1-1.03,1.131,1.712,1.712,0,0,1-1.128.409,3.094,3.094,0,0,1-1.275-.384,2.164,2.164,0,0,1-1.127-1.637,8.424,8.424,0,0,1-.123-2.5,13.631,13.631,0,0,1,.441-2.43,3.66,3.66,0,0,1,.613-1.42.713.713,0,0,1,.589-.24,1.548,1.548,0,0,1,.71.192,3.075,3.075,0,0,1,.613.409.711.711,0,0,1,.27.409c.016.129-.09.193-.319.193a.552.552,0,0,0-.2.193,4.634,4.634,0,0,0-.416,1.467A16,16,0,0,0,21.7,17.9q-.024.819.025,2.069.1.1,1.1-1.467a31.436,31.436,0,0,0,2.28-4.6,6.414,6.414,0,0,0,.294-.649,1.137,1.137,0,0,1,.148-.313.446.446,0,0,1,.392-.144,1.755,1.755,0,0,1,.613.144,1.973,1.973,0,0,1,.662.433.66.66,0,0,1,.245.433,4.741,4.741,0,0,1-.147.818q-.59,3.273-.76,5.077a19.519,19.519,0,0,0-.123,2.67,4.31,4.31,0,0,0,.148,1.107.456.456,0,0,1,.048.337c-.033.1-.18.144-.441.144Z" transform="translate(-0.002 0.003)"/><path class="cls-2" d="M30.413.048A.394.394,0,0,1,30.658,0,1.1,1.1,0,0,1,31.2.168,2.858,2.858,0,0,1,31.761.6a1.89,1.89,0,0,1,.393.529.417.417,0,0,1-.025.457c-.1.065-.156.081-.172.049s-.032.016-.049.144-.049.385-.1.77-.139,1.027-.27,1.925q-.343,2.6-.588,4.932T30.533,13.5q-.173,1.757-.245,2.814c-.049.707-.073,1.091-.073,1.155a6.125,6.125,0,0,0,.465-.794q.466-.841,1.2-1.924a17.855,17.855,0,0,1,1.594-2.021,3.131,3.131,0,0,1,1.643-1.083,2.186,2.186,0,0,1,1.545.625,3.262,3.262,0,0,1,.907,1.444,4.674,4.674,0,0,1,.049,2.045,18.288,18.288,0,0,1-.638,2.622,25.735,25.735,0,0,1-1.054,2.767,27.62,27.62,0,0,1-1.25,2.478,11.215,11.215,0,0,1-1.251,1.8q-.614.7-1.054.7a1.313,1.313,0,0,1-.686-.337,1.627,1.627,0,0,1-.54-.578q-.147-.24.147-.481a5.935,5.935,0,0,0,.687-.914q.441-.674.931-1.564t.981-1.973q.489-1.081.932-2.093a14.522,14.522,0,0,0,1-3.489,5.8,5.8,0,0,0,.073-1.227q-.2,0-.956.818a16.547,16.547,0,0,0-1.667,2.214,30.971,30.971,0,0,0-1.814,3.248,16.776,16.776,0,0,0-1.349,3.97,1.66,1.66,0,0,0-.073.7,5.149,5.149,0,0,0,.123.891.6.6,0,0,1-.123.626.829.829,0,0,1-.564.192,2.181,2.181,0,0,1-1.03-.289q-.393-.24-.564-1.444a20.25,20.25,0,0,1-.147-3.055q.026-1.852.2-4.114t.417-4.6q.244-2.332.54-4.571t.588-3.994q.294-1.757.539-2.839A3.036,3.036,0,0,1,30.413.048Z" transform="translate(-0.002 0.003)"/><path class="cls-2" d="M44.437,12.751q-.049.05-.76.65t-1.545,1.444A19.218,19.218,0,0,0,40.588,16.6a2.765,2.765,0,0,0-.712,1.588q0,.048.54.289t1.177.481q.93.386,1.373.625a3.86,3.86,0,0,1,.833.626,2.656,2.656,0,0,1,.98,2.238,2.4,2.4,0,0,1-1.568,1.8,11.067,11.067,0,0,1-1.423.457,6.113,6.113,0,0,1-1.47.169,1.378,1.378,0,0,1-.687-.337,2.676,2.676,0,0,1-.564-.65,1.841,1.841,0,0,1-.269-.7.42.42,0,0,1,.245-.481.29.29,0,0,1,.2-.048.652.652,0,0,1,.392.145.841.841,0,0,0,.343.144.737.737,0,0,0,.148-.024.842.842,0,0,1,.2-.024,4.278,4.278,0,0,0,2.207-.914c.423-.417.636-.674.636-.77,0-.032-.114-.1-.342-.193l-.81-.337q-.468-.192-.98-.409a4.5,4.5,0,0,1-.858-.457,4.45,4.45,0,0,1-1.349-1.3,2.752,2.752,0,0,1-.515-1.54,3.475,3.475,0,0,1,.662-1.877,12.46,12.46,0,0,1,1.594-1.948,23.38,23.38,0,0,1,1.814-1.661,6.771,6.771,0,0,1,1.324-.914.82.82,0,0,1,.442-.1,1.052,1.052,0,0,1,.833.409,2.085,2.085,0,0,1,.392,1.227,1.048,1.048,0,0,1-.123.481.429.429,0,0,1-.416.241A1.561,1.561,0,0,1,44.437,12.751Z" transform="translate(-0.002 0.003)"/><path class="cls-2" d="M51.251,13.329a.171.171,0,0,1-.146.193.163.163,0,0,1-.054,0,1.6,1.6,0,0,1-.932-.433l-.245-.192a11.217,11.217,0,0,0-.808,1.973,23.466,23.466,0,0,0-.785,3.079,18.306,18.306,0,0,0-.319,3.417,8.178,8.178,0,0,0,.49,2.984q.54-.434,1.177-.987A9.116,9.116,0,0,0,51.2,21.221c.163-.193.294-.353.393-.482a.521.521,0,0,1,.441-.192,1.464,1.464,0,0,1,.539.1.957.957,0,0,1,.614.385.715.715,0,0,1,.024.554,2.658,2.658,0,0,1-.344.673c-.164.241-.327.475-.49.7a6.594,6.594,0,0,1-2.035,2,4.022,4.022,0,0,1-1.985.6,2.442,2.442,0,0,1-1.447-.433,2.284,2.284,0,0,1-.858-1.106,8.661,8.661,0,0,1-.318-2.358,19.492,19.492,0,0,1,.17-2.887,23.131,23.131,0,0,1,.589-2.96,22.373,22.373,0,0,1,.859-2.622,7.734,7.734,0,0,1,1-1.853q.539-.7,1.029-.65a1.743,1.743,0,0,1,1.373.987A3.474,3.474,0,0,1,51.251,13.329Z" transform="translate(-0.002 0.003)"/><path class="cls-2" d="M56.252,14c0,.1-.016.289-.049.578s-.065.594-.1.914-.067.755-.1,1.3q.783-1.3,1.472-2.357.636-.867,1.3-1.612a2.13,2.13,0,0,1,1.054-.794,1.021,1.021,0,0,1,.809.337,2.834,2.834,0,0,1,.613.769c.067.225.116.417.147.578a5.343,5.343,0,0,1,0,1.058v1.781a2.771,2.771,0,0,0,.049.674c0,.192-.066.288-.2.288a.889.889,0,0,1-.515-.192,1.655,1.655,0,0,1-.465-.53A1.692,1.692,0,0,1,60,15.953a12.085,12.085,0,0,1-.024-1.8A14.538,14.538,0,0,0,58.4,16.241,24.013,24.013,0,0,0,57.1,18.6q-.564,1.179-.932,2.19a6.556,6.556,0,0,0-.417,1.636c-.033.224-.024.336.024.336s.09.081.123.241c0,.225-.213.337-.637.337a1.746,1.746,0,0,1-.614-.12,1.592,1.592,0,0,1-.563-.362,2.04,2.04,0,0,1-.221-.89,14.55,14.55,0,0,1-.073-1.491q0-.8.049-1.516c.032-.481.049-.786.049-.915q.1-1.49.22-2.478T54.332,14c.065-.384.122-.665.172-.841a1.975,1.975,0,0,0,.073-.313c0-.128.1-.193.294-.193a1.248,1.248,0,0,1,.442.1,1.634,1.634,0,0,1,.465.289,1.883,1.883,0,0,1,.368.433A.749.749,0,0,1,56.252,14Z" transform="translate(-0.002 0.003)"/><path class="cls-2" d="M64,17.083q-.146,2.985-.147,4.355t.05,1.853c.031.321.073.481.122.481s.073.1.073.289c0,.1-.131.144-.392.144a2,2,0,0,1-.564-.1,1.346,1.346,0,0,1-.564-.337,2.872,2.872,0,0,1-.392-1.492,24.255,24.255,0,0,1-.073-2.5q.024-1.347.122-2.574t.147-1.661c.065-.737.114-1.179.148-1.323A.264.264,0,0,1,62.822,14a1.1,1.1,0,0,1,.515.145,2.569,2.569,0,0,1,.49.337,1.349,1.349,0,0,1,.32.385.32.32,0,0,1,0,.337,1.2,1.2,0,0,0-.075.481Q64.048,16.121,64,17.083Zm.294-4.427c0,.225.008.457.025.7s-.058.361-.221.361a1.176,1.176,0,0,1-1.029-.626,2.271,2.271,0,0,1-.393-1.2,6.928,6.928,0,0,1,.221-1.058,2.283,2.283,0,0,1,.269-.722,1.884,1.884,0,0,1,.737.144,1.08,1.08,0,0,1,.539.529.7.7,0,0,1,.024.7,3.149,3.149,0,0,0-.172,1.171Z" transform="translate(-0.002 0.003)"/><path class="cls-2" d="M67.578.048A.394.394,0,0,1,67.823,0a1.1,1.1,0,0,1,.54.168A2.858,2.858,0,0,1,68.927.6a1.886,1.886,0,0,1,.392.529.415.415,0,0,1-.025.457c-.1.065-.155.081-.171.049s-.033.016-.05.144-.048.385-.1.77-.14,1.027-.27,1.925q-.344,2.6-.589,4.932T67.7,13.5q-.171,1.757-.245,2.814c-.049.707-.073,1.091-.073,1.155a6.249,6.249,0,0,0,.466-.794q.465-.841,1.2-1.924a17.743,17.743,0,0,1,1.594-2.021,3.128,3.128,0,0,1,1.642-1.083,2.182,2.182,0,0,1,1.545.625,3.264,3.264,0,0,1,.908,1.444,4.674,4.674,0,0,1,.048,2.045,18.452,18.452,0,0,1-.637,2.622,26.03,26.03,0,0,1-1.054,2.767,27.236,27.236,0,0,1-1.251,2.478,11.318,11.318,0,0,1-1.25,1.8q-.614.7-1.055.7a1.313,1.313,0,0,1-.686-.337,1.641,1.641,0,0,1-.539-.578q-.147-.24.147-.481a6.117,6.117,0,0,0,.687-.914q.441-.674.931-1.564t.981-1.973q.489-1.081.931-2.093a14.522,14.522,0,0,0,1-3.489,6,6,0,0,0,.075-1.227q-.2,0-.958.818a16.7,16.7,0,0,0-1.667,2.214,31.072,31.072,0,0,0-1.814,3.248,16.788,16.788,0,0,0-1.348,3.97,1.677,1.677,0,0,0-.074.7,5.351,5.351,0,0,0,.123.891.6.6,0,0,1-.123.626.825.825,0,0,1-.563.192,2.185,2.185,0,0,1-1.031-.289q-.391-.24-.563-1.444a20.251,20.251,0,0,1-.148-3.055q.024-1.852.2-4.114t.417-4.6q.244-2.332.539-4.571t.589-3.994q.294-1.757.539-2.839A3.015,3.015,0,0,1,67.578.048Z" transform="translate(-0.002 0.003)"/><path class="cls-2" d="M81.5,15.494a5.9,5.9,0,0,1-.318,1.42,7.811,7.811,0,0,1-.687,1.492,4.343,4.343,0,0,1-.98,1.155,1.814,1.814,0,0,1-1.153.457,1.419,1.419,0,0,1-.637-.145l-.343-.144c0,.064-.009.3-.024.722a4.42,4.42,0,0,0,.22,1.443,4.019,4.019,0,0,0,2.206-.769q.883-.675,1.57-1.252c.032-.064.114-.1.245-.1a1.211,1.211,0,0,1,.833.481q.442.481.392.722c0,.032-.073.113-.22.241s-.311.273-.491.433-.367.321-.563.481a2.7,2.7,0,0,1-.49.337,4.047,4.047,0,0,1-2.256.673,3.457,3.457,0,0,1-1.5-.336,2.856,2.856,0,0,1-1.153-.987,3.746,3.746,0,0,1-.563-1.684,6.56,6.56,0,0,1,.221-2.382,7.14,7.14,0,0,1,.465-1.323,14.049,14.049,0,0,1,.883-1.684A7.439,7.439,0,0,1,78.289,13.3a1.8,1.8,0,0,1,1.25-.6,1.541,1.541,0,0,1,.711.193,2.114,2.114,0,0,1,.662.553,2.729,2.729,0,0,1,.466.89A3,3,0,0,1,81.5,15.494Zm-3.726,2.984a4.536,4.536,0,0,0,1.176-1.251,5.63,5.63,0,0,0,.982-2.214c.064-.288.064-.433,0-.433.032,0-.082.1-.344.289a5.58,5.58,0,0,0-.956,1.227q-.367.649-.613,1.179a9.254,9.254,0,0,0-.392,1.251Z" transform="translate(-0.002 0.003)"/></g></svg>