<svg id="Layer_1" data-name="Layer 1" xmlns="http://www.w3.org/2000/svg" viewBox="0 0 40.63 40.629"><defs><style>.cls-1{fill:#fff;}.cls-2{fill:#f27c98;}</style></defs><ellipse class="cls-1" cx="19.176" cy="21.638" rx="16.434" ry="15.678"/><path class="cls-2" d="M36.883-95.66A20.314,20.314,0,0,1,56.794-74.949,20.316,20.316,0,0,1,36.083-55.038,20.315,20.315,0,0,1,16.168-75.37,20.4,20.4,0,0,1,36.675-95.662ZM33.331-64.826a42.669,42.669,0,0,0,1.413-5.461,14.526,14.526,0,0,1,1.8,1.176,3.758,3.758,0,0,0,2.012.63,7.285,7.285,0,0,0,7.19-3.739,12.664,12.664,0,0,0,1.841-8.7,7.743,7.743,0,0,0-4.152-6.091,13.526,13.526,0,0,0-8.089-1.428,10.437,10.437,0,0,0-6.549,2.9,9.222,9.222,0,0,0-3.124,6.511v.631a8.648,8.648,0,0,0,.941,3.78,4.417,4.417,0,0,0,3.082,2.1c.685-1.176.856-2.142.257-2.646a2.982,2.982,0,0,1-.9-2.016,6.953,6.953,0,0,1,.813-4.747,8.444,8.444,0,0,1,3.382-3.193,8.343,8.343,0,0,1,4.579-.924,6.945,6.945,0,0,1,4.366,1.974,6.046,6.046,0,0,1,1.5,3.613,11.191,11.191,0,0,1-.3,4.453,10.207,10.207,0,0,1-2.14,3.654,3.354,3.354,0,0,1-3.424.925c-1.284-.21-1.926-.841-1.84-1.891a16.775,16.775,0,0,1,.685-3.318c.3-1.218.685-2.395.855-3.487a1.849,1.849,0,0,0-1.283-2.268c-1.713-.63-3,0-3.724,1.932a5.613,5.613,0,0,0,.043,4.915A64.61,64.61,0,0,1,30.9-68.6a18.506,18.506,0,0,0-.428,7.772A7.743,7.743,0,0,0,33.331-64.826Z" transform="translate(-16.168 95.663)"/></svg>