<svg id="Layer_1" data-name="Layer 1" xmlns="http://www.w3.org/2000/svg" viewBox="0 0 159.026 176.696"><defs><style>.cls-1{fill:#addbc6;}</style></defs><g id="Page-1"><g id="_031---Microphone" data-name="031---Microphone"><path id="Shape" class="cls-1" d="M2799.008,823.55a78.571,78.571,0,0,0-16.886-48.936,2.945,2.945,0,0,0-4.636,3.634,72.741,72.741,0,0,1,15.632,45.3,2.945,2.945,0,0,0,5.89,0Z" transform="translate(-2639.982 -773.485)"/><path id="Shape-2" data-name="Shape" class="cls-1" d="M2656.872,774.614a78.626,78.626,0,0,0-16.889,48.936,2.945,2.945,0,0,0,5.889,0,72.785,72.785,0,0,1,15.638-45.3,2.946,2.946,0,1,0-4.638-3.634Z" transform="translate(-2639.982 -773.485)"/><path id="Shape-3" data-name="Shape" class="cls-1" d="M2784.283,826.494a2.944,2.944,0,0,0,2.945-2.944,66.991,66.991,0,0,0-13.885-41.044,2.945,2.945,0,1,0-4.668,3.575,61.165,61.165,0,0,1,12.663,37.469A2.945,2.945,0,0,0,2784.283,826.494Z" transform="translate(-2639.982 -773.485)"/><path id="Shape-4" data-name="Shape" class="cls-1" d="M2665.648,782.536a66.952,66.952,0,0,0-13.886,41.014,2.945,2.945,0,0,0,5.89,0,61.106,61.106,0,0,1,12.663-37.436,2.945,2.945,0,1,0-4.679-3.578Z" transform="translate(-2639.982 -773.485)"/><path id="Shape-5" data-name="Shape" class="cls-1" d="M2759.84,789.115a2.945,2.945,0,0,0-.544,4.123,49.411,49.411,0,0,1,10.263,30.312,2.945,2.945,0,0,0,5.89,0,55.22,55.22,0,0,0-11.486-33.89,2.944,2.944,0,0,0-4.123-.545Z" transform="translate(-2639.982 -773.485)"/><path id="Shape-6" data-name="Shape" class="cls-1" d="M2675.027,789.665a55.445,55.445,0,0,0-11.485,33.885,2.945,2.945,0,0,0,5.89,0,49.593,49.593,0,0,1,10.263-30.312,2.945,2.945,0,1,0-4.668-3.573Z" transform="translate(-2639.982 -773.485)"/><path id="Shape-7" data-name="Shape" class="cls-1" d="M2719.5,779.376a44.223,44.223,0,0,0-44.173,44.174v29.991a8.718,8.718,0,0,0-2.945-.542,8.834,8.834,0,0,0-8.835,8.834,53.064,53.064,0,0,0,41.229,51.642v7.257a5.89,5.89,0,0,0,5.889,5.889v5.89h-14.724a8.836,8.836,0,0,0-8.835,8.835v5.89a2.946,2.946,0,0,0,2.945,2.945h58.9a2.945,2.945,0,0,0,2.945-2.945v-5.89a8.835,8.835,0,0,0-8.835-8.835H2728.33v-5.89a5.89,5.89,0,0,0,5.89-5.889v-7.257a53.064,53.064,0,0,0,41.229-51.642,8.835,8.835,0,0,0-8.835-8.834,8.709,8.709,0,0,0-2.945.542V823.55A44.174,44.174,0,0,0,2719.5,779.376Zm0,5.89a38.314,38.314,0,0,1,35.339,23.559h-26.5a2.945,2.945,0,1,0,0,5.89h28.383a38.553,38.553,0,0,1,.922,5.89H2728.33a2.945,2.945,0,1,0,0,5.889h29.449v5.89H2728.33a2.945,2.945,0,1,0,0,5.89h29.449v5.89H2728.33a2.945,2.945,0,0,0,0,5.89h29.449v5.89h-76.568v-5.89h14.725a2.945,2.945,0,0,0,0-5.89h-14.725v-5.89h14.725a2.945,2.945,0,1,0,0-5.89h-14.725v-5.89h14.725a2.945,2.945,0,1,0,0-5.889h-14.574a38.039,38.039,0,0,1,.918-5.89h13.656a2.945,2.945,0,1,0,0-5.89h-11.78A38.336,38.336,0,0,1,2719.5,785.266Zm38.284,76.567a35.376,35.376,0,0,1-35.339,35.339h-5.89a35.377,35.377,0,0,1-35.339-35.339ZM2746,941.346v2.945h-53.008v-2.945a2.945,2.945,0,0,1,2.945-2.945h47.118A2.945,2.945,0,0,1,2746,941.346Zm-23.559-8.835h-5.89v-5.89h5.89Zm5.89-11.779h-17.67v-6.238a53.192,53.192,0,0,0,5.89.348h5.89a53.178,53.178,0,0,0,5.89-.348Zm38.284-61.843a2.945,2.945,0,0,1,2.945,2.944,47.176,47.176,0,0,1-47.119,47.119h-5.89a47.175,47.175,0,0,1-47.118-47.119,2.945,2.945,0,0,1,5.89,0,41.272,41.272,0,0,0,41.228,41.229h5.89a41.273,41.273,0,0,0,41.229-41.229A2.944,2.944,0,0,1,2766.614,858.889Z" transform="translate(-2639.982 -773.485)"/><path id="Shape-8" data-name="Shape" class="cls-1" d="M2707.716,826.494h2.944a2.945,2.945,0,1,0,0-5.889h-2.944a2.945,2.945,0,1,0,0,5.889Z" transform="translate(-2639.982 -773.485)"/><path id="Shape-9" data-name="Shape" class="cls-1" d="M2707.716,838.274h2.944a2.945,2.945,0,1,0,0-5.89h-2.944a2.945,2.945,0,1,0,0,5.89Z" transform="translate(-2639.982 -773.485)"/><path id="Shape-10" data-name="Shape" class="cls-1" d="M2707.716,814.715h2.944a2.945,2.945,0,1,0,0-5.89h-2.944a2.945,2.945,0,1,0,0,5.89Z" transform="translate(-2639.982 -773.485)"/><path id="Shape-11" data-name="Shape" class="cls-1" d="M2707.716,850.054h2.944a2.945,2.945,0,1,0,0-5.89h-2.944a2.945,2.945,0,0,0,0,5.89Z" transform="translate(-2639.982 -773.485)"/></g></g></svg>