<svg id="Layer_1" data-name="Layer 1" xmlns="http://www.w3.org/2000/svg" viewBox="0 0 40.628 40.627"><defs><style>.cls-1{fill:#444445;}.cls-2{fill:#fff;}</style></defs><path class="cls-1" d="M20.715-52.763A20.313,20.313,0,0,1,40.624-32.052,20.314,20.314,0,0,1,19.913-12.143,20.315,20.315,0,0,1,0-32.473,20.4,20.4,0,0,1,20.507-52.765Z" transform="translate(0 52.766)"/><path class="cls-2" d="M20.314-26.971a5.278,5.278,0,0,0,3.871-1.61,5.275,5.275,0,0,0,1.61-3.871v-8.771a5.274,5.274,0,0,0-1.61-3.871A5.275,5.275,0,0,0,20.314-46.7a5.276,5.276,0,0,0-3.871,1.611,5.275,5.275,0,0,0-1.611,3.871v8.771a5.276,5.276,0,0,0,1.611,3.871A5.279,5.279,0,0,0,20.314-26.971Z" transform="translate(0 52.766)"/><path class="cls-2" d="M29.855-35.416a1.051,1.051,0,0,0-.77-.325,1.053,1.053,0,0,0-.771.325,1.054,1.054,0,0,0-.326.771v2.193a7.392,7.392,0,0,1-2.252,5.421,7.391,7.391,0,0,1-5.422,2.253,7.391,7.391,0,0,1-5.422-2.253,7.386,7.386,0,0,1-2.252-5.421v-2.193a1.054,1.054,0,0,0-.326-.771,1.053,1.053,0,0,0-.771-.325,1.053,1.053,0,0,0-.771.325,1.053,1.053,0,0,0-.325.771v2.193a9.511,9.511,0,0,0,2.527,6.586,9.566,9.566,0,0,0,6.244,3.212v2.261H14.832a1.054,1.054,0,0,0-.771.326,1.053,1.053,0,0,0-.325.771,1.055,1.055,0,0,0,.325.771,1.057,1.057,0,0,0,.771.325H25.8a1.056,1.056,0,0,0,.771-.325,1.056,1.056,0,0,0,.326-.771,1.054,1.054,0,0,0-.326-.771,1.053,1.053,0,0,0-.771-.326H21.411v-2.261a9.566,9.566,0,0,0,6.243-3.212,9.511,9.511,0,0,0,2.527-6.586v-2.193A1.05,1.05,0,0,0,29.855-35.416Z" transform="translate(0 52.766)"/></svg>