<svg id="Layer_1" data-name="Layer 1" xmlns="http://www.w3.org/2000/svg" viewBox="0 0 200 161.08"><defs><style>.cls-1{fill:#fff;}</style></defs><path class="cls-1" d="M1903.782-1458.6a7.686,7.686,0,0,1-5.093-.98,19.382,19.382,0,0,1-4.811-3.925,39.733,39.733,0,0,1-4.356-5.8q-2.05-3.277-3.737-6.664t-2.944-6.461q-1.258-3.073-1.987-5.237-.03-.185-.53,1.416t-1.25,4.289q-.753,2.688-1.713,6.122t-2.009,6.93q-1.049,3.5-1.985,6.783t-1.7,5.6a27.7,27.7,0,0,1-1.076,3.025,2.453,2.453,0,0,1-.821,1.083,1.612,1.612,0,0,1-.632.2,4.973,4.973,0,0,1-1.278.017,3.17,3.17,0,0,1-1.246-.368,1.778,1.778,0,0,1-.729-.69,6.362,6.362,0,0,1-.167-2.206q.041-1.81.256-5.743t.649-11.223q.318-5.658.526-9.351t.312-6.275q.1-2.582.134-4.44t.009-3.755c.035-.956.057-1.5.069-1.627s-.118-.233-.384-.318a2.178,2.178,0,0,1-1.266-1.078,12.067,12.067,0,0,1-.951-2.649,17.328,17.328,0,0,1-.577-3.565,6.192,6.192,0,0,1,.249-2.559,1.4,1.4,0,0,1,1.083-.935,3.222,3.222,0,0,1,2.475.929,6.556,6.556,0,0,1,1.793,1.99,14.693,14.693,0,0,1,.841,3.143,36.071,36.071,0,0,1,.529,4.143q.159,2.161.154,5.344t-.106,6.669q-.1,3.486-.238,7.023t-.3,6.368q-.16,2.829-.236,4.694a19,19,0,0,1-.14,2.066q.06.37.458-.977t1.1-3.742q.7-2.394,1.587-5.436t1.8-6.137q.923-3.093,1.8-5.851a47.733,47.733,0,0,1,1.644-4.5,2.871,2.871,0,0,0,.289-.855,10.871,10.871,0,0,0-.171-1.35q-.329-2.606.259-3.083a1.859,1.859,0,0,1,.8-.32,3.111,3.111,0,0,1,1.247.083,6.443,6.443,0,0,1,1.207.422,1.341,1.341,0,0,1,.66.559c.1.207,0,.366-.3.476-.175.093-.252.2-.232.323a31.232,31.232,0,0,0,1.468,7.6,62.9,62.9,0,0,0,3.229,8.22,72.191,72.191,0,0,0,4.363,7.893,72.123,72.123,0,0,0,4.73,6.646,31.714,31.714,0,0,0,4.338,4.524q2.025,1.668,3.321,1.458a1.507,1.507,0,0,0,.617-.29,8.29,8.29,0,0,0,2.6-4.175,27.84,27.84,0,0,0,1.088-5.877,51.536,51.536,0,0,0,.12-6.292q-.133-3.16-.4-5.4a64.859,64.859,0,0,0-1.611-8.482q-1.211-4.839-2.868-9.8a96.44,96.44,0,0,0-3.717-9.471,45.168,45.168,0,0,0-4.263-7.577q-1-1.454.3-1.664a2.589,2.589,0,0,1,1.74.193,4.208,4.208,0,0,1,1.257,1.317,45.74,45.74,0,0,1,4.571,7.717,100.111,100.111,0,0,1,3.879,9.3q1.725,4.806,2.893,9.367t1.706,7.9q.372,2.887.555,6.942a35.426,35.426,0,0,1-.519,7.924,18.419,18.419,0,0,1-2.64,6.843A8.028,8.028,0,0,1,1903.782-1458.6Z" transform="translate(-1864.472 1575.049)"/><path class="cls-1" d="M1924.845-1472.678c-.132-.421-.23-.628-.29-.618s-.165.154-.31.43a9.009,9.009,0,0,1-1.386,1.7,3.474,3.474,0,0,1-1.89.924,5.36,5.36,0,0,1-3.831-.805,5.125,5.125,0,0,1-1.918-3.348,15.783,15.783,0,0,1-.256-5.09,14.2,14.2,0,0,1,1.315-4.775,3.85,3.85,0,0,1,2.79-2.4,3.124,3.124,0,0,1,.954.036,4.033,4.033,0,0,1,2.821,1.3q.679.984.773.968l.048-.293a5.463,5.463,0,0,1,.035-.956,17.646,17.646,0,0,1,.344-3.144,3.014,3.014,0,0,1,.692-1.585.744.744,0,0,1,.448-.168,3.08,3.08,0,0,1,1.654.255,3.4,3.4,0,0,1,1.39.963,2.068,2.068,0,0,1,.162,1.589q-.206,1.08-.834,4.221l.087,1.126q.027.757.143,2.638t.345,3.888a23.582,23.582,0,0,0,.685,3.642,3.386,3.386,0,0,0,1.084,2.01q.829.437.644.751a1.268,1.268,0,0,1-.926.435,3.808,3.808,0,0,1-3.161-.77A4.56,4.56,0,0,1,1924.845-1472.678Zm-1.932-9c.01.063-.33-.072-1.015-.4a2.389,2.389,0,0,1-1.317-1.688,10.389,10.389,0,0,0-1.671,5.212,15.78,15.78,0,0,0,.654,5.5,11.388,11.388,0,0,0,1.273-2.392q.575-1.422,1.067-2.786t.757-2.356A7.124,7.124,0,0,0,1922.913-1481.678Z" transform="translate(-1864.472 1575.049)"/><path class="cls-1" d="M1933.533-1484.063q.12.743.246,1.813c.083.716.152,1.037.2.965q.558-1.231,1.554-3.293a43.964,43.964,0,0,1,2.274-4.122,26.086,26.086,0,0,1,2.726-3.672,5.119,5.119,0,0,1,2.834-1.837,3.9,3.9,0,0,1,2.921,1.047,4.5,4.5,0,0,1,1.2,1.278,6.771,6.771,0,0,1,.738,1.924,18.918,18.918,0,0,1,.41,3.117q.121,1.929.248,5.044.1,1.219.248,3.286a10.067,10.067,0,0,0,.6,3.133q.443.975-.3,1.093a2.658,2.658,0,0,1-1.577-.362,4.116,4.116,0,0,1-1.282-.885,7.029,7.029,0,0,1-1.05-2.966,40.955,40.955,0,0,1-.444-4.2q-.13-2.261-.2-4.435a28.594,28.594,0,0,0-.293-3.564,20.3,20.3,0,0,0-4.036,5.548,57.634,57.634,0,0,0-3.056,6.91,29.5,29.5,0,0,0-1.605,6.2q-.359,2.766.316,3.417.567.574.158.972a2.068,2.068,0,0,1-1.15.519,4.239,4.239,0,0,1-1.524-.038,1.415,1.415,0,0,1-1.09-.869l-.305-.711a31.48,31.48,0,0,1-.856-3.234q-.505-2.246-.978-5.164t-.844-6.087q-.372-3.169-.583-5.94t-.164-4.82a4.662,4.662,0,0,1,.528-2.6,1.424,1.424,0,0,1,.524-.275,1.788,1.788,0,0,1,.57,0,4.049,4.049,0,0,1,.493.11q2.182.6,1.934,1.4-.018.48-.114,3.107A50.594,50.594,0,0,0,1933.533-1484.063Z" transform="translate(-1864.472 1575.049)"/><path class="cls-1" d="M1953.931-1483.6a13.738,13.738,0,0,0,.68,5.078q.708,1.736.893,1.706c.061-.01.166-.147.313-.414a6.951,6.951,0,0,1,.533-.812,19.977,19.977,0,0,0,1.576-3.448q.753-2.081,1.463-4.445t1.266-4.776q.557-2.412.96-4.328t.675-3.156c.181-.828.269-1.265.261-1.312q-.03-3.114.113-5.751.106-2.265.3-4.293a7.629,7.629,0,0,1,.564-2.667,1.136,1.136,0,0,1,.786-.418,4.762,4.762,0,0,1,1.826.14,2.416,2.416,0,0,1,1.455.78,2.533,2.533,0,0,1,.39,1.533,27.136,27.136,0,0,1-.166,3.365,26.711,26.711,0,0,1-.444,3.409,23.618,23.618,0,0,0-.376,4.124,54.806,54.806,0,0,0,.28,5.832,72.211,72.211,0,0,0,1.421,8.477q.711,3.223,1.206,4.811a12.888,12.888,0,0,0,.829,2.188,3.539,3.539,0,0,0,.386.626c.034.02-.029.114-.191.285a2.888,2.888,0,0,1-1.607.623,5.466,5.466,0,0,1-1.271.061,1.256,1.256,0,0,1-.855-.3,11.858,11.858,0,0,1-2.223-4.937,35.786,35.786,0,0,1-.734-3.654c-.1-.8-.211-1.2-.334-1.179a3.044,3.044,0,0,0-.348,1.072,32.668,32.668,0,0,1-1.045,3.217,19.352,19.352,0,0,1-2.532,5.453,4.825,4.825,0,0,1-3.106,1.918,7.946,7.946,0,0,1-2.611-.013,4.535,4.535,0,0,1-2.194-.95,6.363,6.363,0,0,1-1.815-3.3,17.41,17.41,0,0,1-.525-4.994,23.226,23.226,0,0,1,.823-5.466,13.837,13.837,0,0,1,2.225-4.714,3.969,3.969,0,0,1,2.568-1.722,3.941,3.941,0,0,1,2.178.264,6.693,6.693,0,0,1,1.841,1.116,7.424,7.424,0,0,1,1.206,1.293q.432.62.27.79a.916.916,0,0,1-.531.232,3.194,3.194,0,0,1-1.4-.172,3.74,3.74,0,0,1-1.4-.752c-.015-.094-.092-.178-.231-.253-.007-.047-.047-.089-.115-.127s-.274.166-.613.607a9.242,9.242,0,0,0-1.061,1.95,23.127,23.127,0,0,0-1.05,3.181A16.547,16.547,0,0,0,1953.931-1483.6Z" transform="translate(-1864.472 1575.049)"/><path class="cls-1" d="M1981.064-1493.472a11.818,11.818,0,0,1-.158,2.829,15.358,15.358,0,0,1-.83,3.08,8.384,8.384,0,0,1-1.489,2.522,3.429,3.429,0,0,1-2.03,1.231,2.669,2.669,0,0,1-1.247-.083l-.693-.173q.03.188.179,1.4a8.847,8.847,0,0,0,.866,2.71,7.589,7.589,0,0,0,3.921-2.155q1.455-1.566,2.569-2.887.061-.2.432-.26a2.3,2.3,0,0,1,1.722.671q.983.792.965,1.269.015.094-.341.531t-.79.983q-.433.547-.913,1.1a5.186,5.186,0,0,1-.82.8,7.6,7.6,0,0,1-4.043,1.986,6.482,6.482,0,0,1-2.925-.192,5.441,5.441,0,0,1-2.481-1.546,7.386,7.386,0,0,1-1.588-3.069,13.077,13.077,0,0,1-.327-4.651,14.184,14.184,0,0,1,.466-2.689,27.466,27.466,0,0,1,1.14-3.51,14.5,14.5,0,0,1,1.677-3.123,3.407,3.407,0,0,1,2.17-1.539,2.894,2.894,0,0,1,1.4.153,4.1,4.1,0,0,1,1.42.863,5.346,5.346,0,0,1,1.156,1.571A5.9,5.9,0,0,1,1981.064-1493.472Zm-6.1,6.879a8.716,8.716,0,0,0,1.829-2.767,11.115,11.115,0,0,0,1.16-4.559c.032-.576-.013-.853-.135-.834.06-.009-.125.211-.558.661a10.822,10.822,0,0,0-1.42,2.653q-.492,1.362-.789,2.456a18.123,18.123,0,0,0-.349,2.527Z" transform="translate(-1864.472 1575.049)"/><path class="cls-1" d="M1988.181-1497.571c.03.185.058.561.087,1.126s.061,1.163.1,1.789.111,1.472.221,2.531q1.073-2.74,2.039-4.987.93-1.861,1.947-3.5t1.741-1.85a1.943,1.943,0,0,1,1.631.4,5.505,5.505,0,0,1,1.4,1.295q.289.618.458,1.066a10.681,10.681,0,0,1,.33,2.037l.555,3.426a5.451,5.451,0,0,0,.3,1.282c.06.37-.034.575-.28.615a1.682,1.682,0,0,1-1.031-.213,3.211,3.211,0,0,1-1.043-.876,3.354,3.354,0,0,1-.771-1.538,24.008,24.008,0,0,1-.609-3.465,27.994,27.994,0,0,0-2.306,4.507,47.124,47.124,0,0,0-1.716,4.934q-.7,2.442-1.074,4.5a13.019,13.019,0,0,0-.276,3.276c.008.442.059.655.151.64s.194.128.306.426c.071.432-.3.713-1.1.843a3.257,3.257,0,0,1-1.193-.044,3.037,3.037,0,0,1-1.176-.523,4.069,4.069,0,0,1-.693-1.645,28.2,28.2,0,0,1-.6-2.849q-.247-1.527-.38-2.931c-.089-.936-.152-1.527-.193-1.775q-.28-2.9-.356-4.836t-.071-3.077q0-1.141.061-1.673a3.97,3.97,0,0,0,.041-.624c-.04-.246.125-.4.5-.46a2.309,2.309,0,0,1,.862.05,3.091,3.091,0,0,1,.968.413,3.643,3.643,0,0,1,.829.721A1.482,1.482,0,0,1,1988.181-1497.571Z" transform="translate(-1864.472 1575.049)"/><path class="cls-1" d="M2003-1506.83q.543,5.11,1.288,10.3t1.435,9.443l1.14,7.035a19.684,19.684,0,0,1,.38,2.935,2.766,2.766,0,0,1-1.6.692,7.49,7.49,0,0,1-1.271.061c-.54-.008-.839-.2-.9-.576q-.228-1.407-.822-4.2t-1.245-6.513q-.653-3.72-1.27-8.134t-1.072-8.959c-.015-.094-.038-.427-.067-1s-.077-1.252-.14-2.036-.123-1.64-.179-2.57-.1-1.789-.133-2.577a19.206,19.206,0,0,1,.005-2.023,2.682,2.682,0,0,1,.135-.924.938.938,0,0,1,.451-.145,3.283,3.283,0,0,1,1.444.127,4.424,4.424,0,0,1,1.223.523.464.464,0,0,1,.179.224,6.037,6.037,0,0,1,.206.978q.13.808.306,2.477T2003-1506.83Z" transform="translate(-1864.472 1575.049)"/><path class="cls-1" d="M2021.057-1483.225a2.73,2.73,0,0,1-1.977-.488,3.352,3.352,0,0,1-1.109-1.578,12.726,12.726,0,0,1-.553-2.239l-.412-2.546-.3.523a12.982,12.982,0,0,1-1.589,2.49,3.231,3.231,0,0,1-2,1.132,5.8,5.8,0,0,1-2.524-.352,4.215,4.215,0,0,1-2.636-2.8,16.8,16.8,0,0,1-1.011-4.778,27.048,27.048,0,0,1,.074-4.811,7.164,7.164,0,0,1,.714-2.919,1.349,1.349,0,0,1,1.034-.643,2.892,2.892,0,0,1,1.4.153,5.969,5.969,0,0,1,1.283.6,1.393,1.393,0,0,1,.636.7c.071.243-.11.4-.541.468a1.044,1.044,0,0,0-.309.43,9.163,9.163,0,0,0-.329,2.952,31.45,31.45,0,0,0,.255,3.332q.207,1.583.691,3.974.215.158,1.623-3.161a61.915,61.915,0,0,0,2.867-9.54,12.742,12.742,0,0,0,.353-1.34,2.24,2.24,0,0,1,.18-.647.842.842,0,0,1,.694-.4,3.3,3.3,0,0,1,1.2.09,3.735,3.735,0,0,1,1.383.632,1.3,1.3,0,0,1,.6.758,9.253,9.253,0,0,1-.023,1.619q-.089,6.478.15,10a38.581,38.581,0,0,0,.6,5.176,8.643,8.643,0,0,0,.622,2.085.916.916,0,0,1,.2.633q-.048.294-.788.413Z" transform="translate(-1864.472 1575.049)"/><path class="cls-1" d="M2032.541-1507.227q-.078.108-1.23,1.482t-2.463,3.25a37.814,37.814,0,0,0-2.365,3.852,5.432,5.432,0,0,0-.846,3.273,3.3,3.3,0,0,0,1.107.39q1.092.3,2.369.567,1.877.457,2.784.784a7.261,7.261,0,0,1,1.767.95,5.236,5.236,0,0,1,2.547,4.006q.075,2.221-2.4,3.952a21.11,21.11,0,0,1-2.539,1.314,11.512,11.512,0,0,1-2.721.773,2.587,2.587,0,0,1-1.4-.439,5.132,5.132,0,0,1-1.266-1.077,3.631,3.631,0,0,1-.726-1.261.823.823,0,0,1,.312-1,.549.549,0,0,1,.355-.152,1.25,1.25,0,0,1,.785.158,1.623,1.623,0,0,0,.692.173,1.235,1.235,0,0,0,.27-.091,1.564,1.564,0,0,1,.362-.107,8.048,8.048,0,0,0,3.876-2.433q1.006-1.4.962-1.676c-.01-.061-.247-.15-.707-.266s-1.006-.248-1.631-.4-1.284-.314-1.977-.487a8.672,8.672,0,0,1-1.76-.618,8.646,8.646,0,0,1-2.948-2.088,5.441,5.441,0,0,1-1.451-2.806,6.881,6.881,0,0,1,.663-3.814,24.263,24.263,0,0,1,2.4-4.237,45.7,45.7,0,0,1,2.9-3.749,12.842,12.842,0,0,1,2.212-2.163,1.534,1.534,0,0,1,.8-.32,2,2,0,0,1,1.7.532,4.112,4.112,0,0,1,1.122,2.242,2.1,2.1,0,0,1-.081.963.817.817,0,0,1-.711.59A2.938,2.938,0,0,1,2032.541-1507.227Z" transform="translate(-1864.472 1575.049)"/><path class="cls-1" d="M2019.1-1519.731l.188,1.157c.045.278-.055.437-.3.477a2.534,2.534,0,0,1-1.992-.58,3.777,3.777,0,0,1-1.31-1.641,1.623,1.623,0,0,1,.224-1.842,14.7,14.7,0,0,1,3.475-2.273,48.821,48.821,0,0,1,5.215-2.366q2.594-.99,4.7-1.712t4.749-1.434q.132-2.111.285-3.515t.382-2.913a13.156,13.156,0,0,1,.557-2.418,3.375,3.375,0,0,1,.545-1.324,2.537,2.537,0,0,1,1.172-.38,4.33,4.33,0,0,1,2.06.712q1.107.676.442,1.259-.263.138-.5,1.316a22.691,22.691,0,0,0-.35,2.527q-.114,1.352-.172,2.451t-.044,1.195q.924-.149,2.166-.4t2.812-.5q.924-.15,2.782-.4t4.113-.381q2.257-.128,4.69-.047a28.711,28.711,0,0,1,4.441.468,9.767,9.767,0,0,1,3.382,1.258,3.339,3.339,0,0,1,1.615,2.352q.18,1.111-.375,1.2a1.6,1.6,0,0,1-.785-.158,9.341,9.341,0,0,0-3.559-1.467,23.762,23.762,0,0,0-4.633-.485,43.088,43.088,0,0,0-4.991.238q-2.519.267-4.738.625-3.051.495-5.063.963a8.768,8.768,0,0,0-2,.561,41.73,41.73,0,0,0-.055,5.521q.137,3.778.571,8.507t1.135,9.937q.7,5.21,1.651,9.9a80.783,80.783,0,0,0,2.112,8.353,15.951,15.951,0,0,0,2.572,5.333c.255.4.33.674.228.818a1.15,1.15,0,0,1-.58.522,3.249,3.249,0,0,1-.9.289,1.96,1.96,0,0,1-.755.027q-1.326.022-2.487-1.878a24.394,24.394,0,0,1-2.158-4.829,65.514,65.514,0,0,1-1.8-6.455q-.809-3.527-1.4-6.9t-.99-6.112q-.4-2.737-.513-4.05a125.89,125.89,0,0,1-.891-13.113,38.482,38.482,0,0,0-.08-4.6q-3.239,1.093-5.568,1.947t-4.852,1.973A38.355,38.355,0,0,0,2019.1-1519.731Z" transform="translate(-1864.472 1575.049)"/><path class="cls-1" d="M1913.479-1509.015a.274.274,0,0,1-.1-.176l-1.681-10.376a.281.281,0,0,1,.04-.2.235.235,0,0,1,.166-.107l4.31-.7a3.824,3.824,0,0,1,2.021.209,3.916,3.916,0,0,1,1.646,1.188,3.847,3.847,0,0,1,.835,1.855,3.834,3.834,0,0,1-.207,2.024,3.92,3.92,0,0,1-1.186,1.648,3.828,3.828,0,0,1-1.852.835l-2.49.4.467,2.882a.272.272,0,0,1-.039.2.234.234,0,0,1-.167.107l-1.571.255A.238.238,0,0,1,1913.479-1509.015Zm3.653-5.884a1.778,1.778,0,0,0,1.192-.729,1.739,1.739,0,0,0,.323-1.355,1.765,1.765,0,0,0-.736-1.192,1.76,1.76,0,0,0-1.362-.323l-2.489.4.583,3.6Z" transform="translate(-1864.472 1575.049)"/><path class="cls-1" d="M1925.583-1510.976a.274.274,0,0,1-.1-.176l-1.681-10.376a.273.273,0,0,1,.04-.2.233.233,0,0,1,.166-.107l4.31-.7a3.825,3.825,0,0,1,2.021.208,3.927,3.927,0,0,1,1.646,1.189,3.852,3.852,0,0,1,.835,1.855,3.922,3.922,0,0,1-1.54,3.8l2.382,2.876a.186.186,0,0,1,.051.119.226.226,0,0,1-.011.13.225.225,0,0,1-.195.176l-1.805.292a.284.284,0,0,1-.253-.087l-2.264-2.735-2.1.34.467,2.882a.276.276,0,0,1-.04.2.235.235,0,0,1-.166.107l-1.571.254A.23.23,0,0,1,1925.583-1510.976Zm3.653-5.884a1.748,1.748,0,0,0,1.184-.727,1.751,1.751,0,0,0,.315-1.354,1.775,1.775,0,0,0-.728-1.193,1.733,1.733,0,0,0-1.354-.325l-2.489.4.583,3.6Z" transform="translate(-1864.472 1575.049)"/><path class="cls-1" d="M1939.171-1513.289a.234.234,0,0,1-.219.228l-1.618.262a.216.216,0,0,1-.22-.077.215.215,0,0,1-.085-.226l1.587-10.9a.264.264,0,0,1,.218-.228l1.712-.277a.265.265,0,0,1,.279.147l4.948,9.847a.245.245,0,0,1,.031.091.2.2,0,0,1-.04.15.217.217,0,0,1-.185.142l-1.618.262a.268.268,0,0,1-.164-.029.214.214,0,0,1-.115-.118l-.66-1.315-3.64.589Zm2.862-4.013-1.767-3.519-.567,3.9Z" transform="translate(-1864.472 1575.049)"/><path class="cls-1" d="M1950.458-1519.154a3.353,3.353,0,0,0,.922,1.01l.016,0a3.462,3.462,0,0,0,1.241.567,3.452,3.452,0,0,0,1.365.05,3.557,3.557,0,0,0,1.3-.481,2.332,2.332,0,0,0,.455-.346.257.257,0,0,1,.135-.054.231.231,0,0,1,.2.048l1.338.966a.181.181,0,0,1,.11.191.241.241,0,0,1-.076.22,6.071,6.071,0,0,1-1.032.822,5.671,5.671,0,0,1-2.079.769,5.574,5.574,0,0,1-2.2-.083,5.785,5.785,0,0,1-2.015-.913l0-.016a5.494,5.494,0,0,1-1.514-1.609,5.615,5.615,0,0,1-.776-2.081,5.618,5.618,0,0,1,.079-2.219,5.5,5.5,0,0,1,.929-2l0-.016a5.791,5.791,0,0,1,1.625-1.5,5.535,5.535,0,0,1,2.062-.774,5.673,5.673,0,0,1,2.215.073,6.033,6.033,0,0,1,1.239.455.243.243,0,0,1,.142.185l.008.046a.172.172,0,0,1-.053.169l-.964,1.339a.228.228,0,0,1-.174.108.26.26,0,0,1-.146-.008,3.353,3.353,0,0,0-.54-.184,3.578,3.578,0,0,0-1.381-.048,3.436,3.436,0,0,0-1.28.479,3.475,3.475,0,0,0-1,.929l-.015,0a3.344,3.344,0,0,0-.556,1.25,3.609,3.609,0,0,0-.041,1.373A3.624,3.624,0,0,0,1950.458-1519.154Z" transform="translate(-1864.472 1575.049)"/><path class="cls-1" d="M1966.375-1517.583a.235.235,0,0,1-.166.107l-1.556.252a.235.235,0,0,1-.192-.049.274.274,0,0,1-.1-.176l-1.388-8.569-2.707.438a.231.231,0,0,1-.191-.048.273.273,0,0,1-.1-.176l-.25-1.543a.279.279,0,0,1,.04-.2.235.235,0,0,1,.166-.107l7.453-1.207a.267.267,0,0,1,.2.039.265.265,0,0,1,.1.183l.25,1.543a.258.258,0,0,1-.048.2.255.255,0,0,1-.174.109l-2.691.435,1.388,8.569A.28.28,0,0,1,1966.375-1517.583Z" transform="translate(-1864.472 1575.049)"/><path class="cls-1" d="M1973.478-1529.766a.262.262,0,0,1,.108.174l1.681,10.377a.262.262,0,0,1-.048.2.258.258,0,0,1-.174.109l-1.556.252a.263.263,0,0,1-.2-.048.256.256,0,0,1-.108-.174l-1.681-10.377a.255.255,0,0,1,.048-.2.255.255,0,0,1,.174-.109l1.555-.252A.261.261,0,0,1,1973.478-1529.766Z" transform="translate(-1864.472 1575.049)"/><path class="cls-1" d="M1980.935-1524.091a3.33,3.33,0,0,0,.922,1.01l.015,0a3.448,3.448,0,0,0,1.242.566,3.451,3.451,0,0,0,1.365.051,3.566,3.566,0,0,0,1.295-.482,2.355,2.355,0,0,0,.455-.345.254.254,0,0,1,.135-.054.226.226,0,0,1,.2.048l1.338.966a.181.181,0,0,1,.111.19.242.242,0,0,1-.076.22,6.074,6.074,0,0,1-1.033.823,5.687,5.687,0,0,1-2.079.768,5.532,5.532,0,0,1-2.2-.083,5.753,5.753,0,0,1-2.016-.913l0-.015a5.5,5.5,0,0,1-1.514-1.61,5.617,5.617,0,0,1-.776-2.08,5.606,5.606,0,0,1,.08-2.22,5.517,5.517,0,0,1,.928-2.005l0-.015a5.8,5.8,0,0,1,1.625-1.5,5.553,5.553,0,0,1,2.061-.773,5.7,5.7,0,0,1,2.216.072,6.2,6.2,0,0,1,1.239.455.245.245,0,0,1,.142.185l.007.047a.168.168,0,0,1-.053.168l-.964,1.34a.225.225,0,0,1-.174.108.255.255,0,0,1-.145-.009,3.514,3.514,0,0,0-.541-.184,3.576,3.576,0,0,0-1.381-.048,3.466,3.466,0,0,0-1.279.479,3.477,3.477,0,0,0-1,.929l-.016,0a3.372,3.372,0,0,0-.556,1.249,3.635,3.635,0,0,0-.041,1.374A3.621,3.621,0,0,0,1980.935-1524.091Z" transform="translate(-1864.472 1575.049)"/><path class="cls-1" d="M1994.026-1522.174a.234.234,0,0,1-.219.228l-1.618.262a.219.219,0,0,1-.22-.077.214.214,0,0,1-.084-.226l1.586-10.9a.264.264,0,0,1,.219-.228l1.711-.277a.264.264,0,0,1,.279.147l4.948,9.847a.223.223,0,0,1,.031.091.2.2,0,0,1-.04.15.217.217,0,0,1-.184.142l-1.618.262a.27.27,0,0,1-.165-.029.214.214,0,0,1-.115-.118l-.66-1.316-3.64.59Zm2.862-4.013-1.767-3.519-.567,3.9Z" transform="translate(-1864.472 1575.049)"/><path class="cls-1" d="M2004.568-1523.769a.277.277,0,0,1-.1-.176l-1.68-10.376a.275.275,0,0,1,.039-.2.237.237,0,0,1,.167-.107l1.556-.252a.264.264,0,0,1,.2.048.262.262,0,0,1,.108.174l1.388,8.57,4.154-.673a.229.229,0,0,1,.191.049.275.275,0,0,1,.1.175l.249,1.543a.273.273,0,0,1-.039.2.234.234,0,0,1-.167.107l-5.974.968A.236.236,0,0,1,2004.568-1523.769Z" transform="translate(-1864.472 1575.049)"/><path class="cls-1" d="M1914.636-1561.487l-.13-.2-.081.212a1.323,1.323,0,0,1-.137.233c.118-.078.234-.16.355-.238Z" transform="translate(-1864.472 1575.049)"/><path class="cls-1" d="M1884.655-1516.251q.677-.634,1.5-1.292a78.653,78.653,0,0,1,20.362-31.612,1.412,1.412,0,0,1-.075-.212.312.312,0,0,1,.051-.3.357.357,0,0,1,.248-.069,1.82,1.82,0,0,1,.341.045c.1-.09.191-.185.291-.277-.068.036-.116.065-.1.071-.093-.032-.217-.223-.314-.436a1.67,1.67,0,0,1-.422-.559l-.032-.017.019-.015a1.171,1.171,0,0,1-.137-.611.79.79,0,0,1-.112-.089c-.55-.539-.148-.451.261-.2a.715.715,0,0,1,1.171.026c.272-.2.553-.391.829-.587.06.109.127.2.192.294a.566.566,0,0,1,.149.155c-.008.01-.018.019-.028.03a1.044,1.044,0,0,0,.366.313c.18-.152.356-.308.533-.459.008-.037.016-.081.024-.119-.2-.625-.174-1.174.369-1.257a.555.555,0,0,1,.505.158c.23-.111.415-.089.288.249a77.485,77.485,0,0,1,36.557-16.372q3-.486,5.98-.73c.019-.046.022-.089-.013-.116a.218.218,0,0,0-.155-.056.39.39,0,0,0-.1.051,3.169,3.169,0,0,1,.353-1.436c.223.007.444.015.665.026a6.04,6.04,0,0,1-.068.8h0c.031.011.035.016.033.022a1.6,1.6,0,0,1,.36-.3.486.486,0,0,1-.128-.214c-.014-.051-.038-.178.064-.208l.017,0a.326.326,0,0,1,.258.178.487.487,0,0,1,.032.108c.2-.115.422-.226.651-.332.023,0,.046,0,.068,0,.036.221.074.454.111.691-.148.028-.368.055-.594.085a7.971,7.971,0,0,0-.9.142c0-.022.008-.043.01-.064a.39.39,0,0,1,.041-.069.254.254,0,0,1-.034.014.241.241,0,0,0,.007-.048c-.454-.108-.288.4-.078.463-.018.082-.039.149-.057.225a77.548,77.548,0,0,1,42.029,8.666c.024-.173,1.107.156,1.387.345.642.428.712.636.524.691a78.62,78.62,0,0,1,10.88,7.333,3.893,3.893,0,0,0,.722-.16c.052-.02.1-.036.136-.053-.015.04-.024.077-.039.122a.434.434,0,0,1-.014.066c.09.006.18.012.257.019.144.011.239.02.3.017,0,.01,0,.025,0,.039,0,.048,0,.105.041.128l.015.007h.069a.143.143,0,0,0,.08-.157.069.069,0,0,0-.015-.045,1.819,1.819,0,0,0,.209-.135.828.828,0,0,1,.14-.09c.009,0,.032.035-.042.288-.013.049-.023.088-.029.119a.2.2,0,0,1-.021.07.424.424,0,0,1-.065.013c-.03,0-.075,0-.125.013-.122.023-.461.1-.586.14l-.038.01v.033a1.2,1.2,0,0,1-.119.277q.668.552,1.326,1.117a3.557,3.557,0,0,1,.844-.487.54.54,0,0,1-.152-.27.352.352,0,0,1,.121-.1c.057-.021.119.059.176.24l.019.049c0,.011,0,.013,0,.026a1.6,1.6,0,0,1,.407-.109,2.244,2.244,0,0,1,.839-.8.144.144,0,0,1,.117,0c.023.017.064.076.017.273a1.272,1.272,0,0,1-.69.928.772.772,0,0,1-.245.042c-.017,0-.018-.006-.031-.006a9.08,9.08,0,0,1-.828.731,78.351,78.351,0,0,1,11.124,12.14l2-.322c.137-.261.29-.632.389-.624a1.884,1.884,0,0,1,.918.413l.277-.045a.688.688,0,0,1,.722-.31.728.728,0,0,1-.1-.1s-.353-.488-.448-.63c-.077-.012-.142-.023-.213-.029l.161-.014-.105-.16a3.576,3.576,0,0,1-.445-.812c-.085-.262.014-.3.065-.326.277-.128.511.3.782.87l.132.279c.106-.01.178-.023.264-.037a83.2,83.2,0,0,0-11.36-12.792,1.426,1.426,0,0,1-.212.193c-.035.005-.075-.018-.113-.021-.113.191-.195.247-.236.261a.1.1,0,0,1-.084-.005c-.021-.014-.025-.042-.013-.08a.7.7,0,0,1,.121-.215,1.482,1.482,0,0,1-.446-.342.411.411,0,0,1-.211.161c.134-.019-.488-.379-.343-.636a3.04,3.04,0,0,0,.485-.253l-.435-.378c-.158.03-.315.149-.424.119-.208-.058-.532-.472-.646-.472-.444,0,.033.675-.421.25a6.018,6.018,0,0,1-.478-1.433c-.161-.1-.328-.187-.491-.282a2.194,2.194,0,0,1-.569.058,1.148,1.148,0,0,1-.168.15,1.507,1.507,0,0,1,.219.389.262.262,0,0,1,.013.134c-.049.127-.338-.025-.491-.11-.112-.059-.163-.086-.215-.083l.014.213-.1-.07,0-.011c-.018-.056-.148.024-.295.119-.247.18-.395.274-.461.337a.94.94,0,0,1-.449-.555,1.754,1.754,0,0,1,.473-1.714c.038.02.077.041.112.062a1.361,1.361,0,0,1,.265.446l.112-.087-.056.206a1.85,1.85,0,0,1,.479.317,2.421,2.421,0,0,1,.346-.246c.259.147.515.3.771.445a2.137,2.137,0,0,0,.218-.071,83.406,83.406,0,0,0-9.96-6.951,3.631,3.631,0,0,1,.354.347q-1.323-.592-2.678-1.155c.116-.312.529.453,1.061.071q-2.382-1.362-4.858-2.562a.789.789,0,0,1-.1.373.413.413,0,0,1-.164.078,3.493,3.493,0,0,1,.163.488c-.312-.119-.626-.229-.939-.343a2.928,2.928,0,0,1-1.962-.292,1.216,1.216,0,0,1-.431-.559c-.182-.06-.361-.122-.54-.182a1.116,1.116,0,0,1,.2-.455c.078-.028.295-.128.537-.241-.032-.134-.185-.276-.609-.459a.981.981,0,0,0-.609-.051.552.552,0,0,1,.066.038,1.344,1.344,0,0,0-.148.535c-.008-.023-.027-.026-.064-.023a.315.315,0,0,0-.061,0c-.052,0-.115-.008-.177-.013s-.156-.007-.235-.009a.732.732,0,0,0-.424.107c.053-.122.106-.248.16-.373a1.867,1.867,0,0,1-1.6-.461c.2.158-.663-.8-1.3-1.632-1.645-.591-3.309-1.138-4.994-1.625a2.062,2.062,0,0,1,.008.8,4.634,4.634,0,0,1-1.055.509,2.581,2.581,0,0,0-.315.135,1.872,1.872,0,0,1-.275.02,1.214,1.214,0,0,1-.262-.025v.008c-.109-.027-.226-.052-.338-.079a.258.258,0,0,1,.036-.038c-.063-.035-.122-.067-.177-.1a1.036,1.036,0,0,0-.584-.214.008.008,0,0,1-.007,0c-.257,0-.376.031-.439.086-.517-.118-1.032-.233-1.554-.345a2.532,2.532,0,0,1,.479-.424.875.875,0,0,1,.334-.048,3.494,3.494,0,0,1,1.247.255.323.323,0,0,0,0,.212.373.373,0,0,0,.3.272l.108.024-.012-.09s.013.007.022.009c.193,0,1.172-.181,1.362-.182a.882.882,0,0,0,.422-.386c.147-.2.315-.428.494-.457a82.106,82.106,0,0,0-9.882-2.171.408.408,0,0,1-.011.472c.007-.083-.045-.186-.249-.328a1.017,1.017,0,0,0-.389-.165c-.014.02-.036.03-.052.056.018-.032.1.094.155.172.009-.044.024-.041.036.067,0,0-.017-.03-.036-.067a1.348,1.348,0,0,0,0,.434,1.077,1.077,0,0,0,.2.009l0-.015.008.014a.679.679,0,0,0,.18-.023.567.567,0,0,1-.051.059c.02-.018.008.1-.034.189a.791.791,0,0,1,.024.094c.026.159.079.468.443.409a1.2,1.2,0,0,0,.254-.071,1.306,1.306,0,0,1,.263-.084c.1.041.038.234-.008.342a1.022,1.022,0,0,0-.1.465,1.345,1.345,0,0,0,.083.283,3.942,3.942,0,0,0-.806-.353.6.6,0,0,0-.394.327c-.069.1-.123.2-.2.209a.235.235,0,0,0,.035-.322.365.365,0,0,0-.34-.136.688.688,0,0,0-.218.106c-.05.032-.107.071-.141.087.032-.016.026-.068.028-.2a.664.664,0,0,0-.088-.437.625.625,0,0,0-.434-.206l-.174.058a.486.486,0,0,1,.054-.388.892.892,0,0,1,.637-.437,1.111,1.111,0,0,1,.267-.009c-.03.005-.051.087-.065.138a.556.556,0,0,0-.017.454.249.249,0,0,0,.259.093.953.953,0,0,0,.29-.111.432.432,0,0,0,.251-.238c-.111-.019-.175-.151-.2-.307-.329-.038-.66-.2-.511-.478a.344.344,0,0,1,.406-.184.556.556,0,0,1,.072-.061q-2.239-.333-4.513-.546l.007,0c.027.023.021.061,0,.106a.843.843,0,0,1-.2.236,2.165,2.165,0,0,1,.512.559.5.5,0,0,1,.3-.144c-.178-.013.555.619.321.9.044-.055-1.078.32-1.11.3-.178-.085-.079-.368.107-.639-.3-.153-.621-.388-.764-.475-.248-.147-.593-.156-.588-.249-.013.144.738-.431.806-.425.05,0,.1.043.145.058a.719.719,0,0,1,.321-.249c-.162-.015-.324-.036-.49-.049-.042.046-.084.092-.129.138a.243.243,0,0,1-.081-.008.574.574,0,0,1,.18-.134,82.084,82.084,0,0,0-10.431-.215,3.531,3.531,0,0,1-.279.459.908.908,0,0,1-.462.179,3.508,3.508,0,0,1-1.837-.29.82.82,0,0,0-.008-.195c-.924.068-1.849.159-2.773.26a1.772,1.772,0,0,0-.18.362c-.409-.009-.822-.013-1.237-.019,0-.072-.005-.13-.008-.186-.3.038-.6.087-.9.128a2.089,2.089,0,0,1-.059.338c-.091.3-.224.51-.359.532-.07.012-.147-.032-.231-.13-.123-.137-.021-.407.121-.664-.514.072-1.024.132-1.539.216-.1.016-.2.038-.3.055a1.143,1.143,0,0,0,.22.142c-.121.062-.2.115-.259.149-.092-.122-.155-.191-.239-.178l-.089.056a.26.26,0,0,0,.009.242.463.463,0,0,0,.1.127,2.755,2.755,0,0,0-.073.3,1.677,1.677,0,0,1-.04.191,2.238,2.238,0,0,1-.2-.385l-.079-.177.011-.131.109-.107.126-.154a82.676,82.676,0,0,0-12.083,3,2.819,2.819,0,0,1-.77,1.484c.013-.33.056-.772.05-1.112a3.015,3.015,0,0,1-.233.537.993.993,0,0,0-.207-.143,4.331,4.331,0,0,1,.141-.413,81.91,81.91,0,0,0-18.3,9.022,1.62,1.62,0,0,0,.465.416,1.37,1.37,0,0,1,.785-.328,1.9,1.9,0,0,1-.341.521,1.086,1.086,0,0,1-.444-.193.384.384,0,0,0-.041.488.687.687,0,0,0,.067.087c.34-.3.686-.6,1.031-.89,1.05.17-.471,1.587-1.031.89-.287.248-.568.5-.849.749.189.126.375.265.535.361.654.379.97.668,1.053.878a.745.745,0,0,1,.27.124.6.6,0,0,1-.189.413c-.266.258-.8.179-1.043.137l-.061-.012-.062.01a1.951,1.951,0,0,1-.284-.318,2.532,2.532,0,0,1-1.29-.635c.173-.156.341-.313.511-.468a4.767,4.767,0,0,0-.511-.6.487.487,0,0,1,.431-.179,1.94,1.94,0,0,1-.1-.5s0-.007,0-.013l.147-.077a2.344,2.344,0,0,0,.6-.624q-.375.249-.746.5a.23.23,0,0,1-.091.06c-1.145.784-2.277,1.584-3.377,2.421a.511.511,0,0,1,.37.187c.13.137.185.281.143.363a.093.093,0,0,1-.079.051.724.724,0,0,1-.6-.393c-.014-.032,0-.056,0-.082a83.313,83.313,0,0,0-7.5,6.509c.114.035.244.073.346.1.117.035.2.055.254.07a1.336,1.336,0,0,1-.82.223,1.686,1.686,0,0,1-.184-.018c-.085.085-.18.163-.266.248a11.575,11.575,0,0,1,1.606,1.171c-.12.105-.237.215-.356.32a10.391,10.391,0,0,1-1.346-.875c-.035.056-.051.121-.118.157a3.641,3.641,0,0,0-.346-.131l0,.007a.305.305,0,0,1-.145.069c.587.316,1.388,1.016.435.831a1,1,0,0,1-.314-.155c-.086.1-.173.2-.242.274s-.14.146-.2.214a1.661,1.661,0,0,0-.065-.165c-.081-.194-.162-.389-.068-.529-.16.165-.317.331-.477.5a.3.3,0,0,1,.119.038c.157.167-.033.321-.226.456a.394.394,0,0,0-.076.058,1.857,1.857,0,0,1-.284-.062,83.445,83.445,0,0,0-9.708,12.632.189.189,0,0,1,.047.066l.3-.331a.868.868,0,0,1-.041-.15c.015.044.032.09.046.132l0,.012c.27-.294.549-.582.828-.873a1.782,1.782,0,0,1-.223,1.265c-.342.232-.458.055-.5-.019-.018-.028-.022-.081-.039-.113.329,1.354-.3,1.335-.927.832a83.048,83.048,0,0,0-6.627,13.441.819.819,0,0,1,.182.061l-.011-.177.108.253v-.089a.492.492,0,0,0,.124.335.458.458,0,0,0,.282.137,3.056,3.056,0,0,1-.574,1.175.814.814,0,0,1-.327.282.682.682,0,0,1-.472-.093q-.582,1.629-1.1,3.284a3.819,3.819,0,0,1,.328,1.051Z" transform="translate(-1864.472 1575.049)"/><path class="cls-1" d="M1913.971-1559.464c.1-.093.208-.184.314-.275a1.551,1.551,0,0,0-.64-.285A1.7,1.7,0,0,0,1913.971-1559.464Z" transform="translate(-1864.472 1575.049)"/><path class="cls-1" d="M1938.079-1416.757l-.061.23-.144-.175a1.177,1.177,0,0,0-.2-.178c.138.037.273.077.413.114Z" transform="translate(-1864.472 1575.049)"/><path class="cls-1" d="M1895.351-1450.216c.561.259,1.172.51,1.828.754a78.662,78.662,0,0,0,29.3,23.568,1.271,1.271,0,0,0-.005.225c.018.145.066.235.143.27a.355.355,0,0,0,.258-.013,1.8,1.8,0,0,0,.309-.15c.122.054.24.115.363.171-.075-.013-.13-.025-.117-.036a.931.931,0,0,0-.16.513,1.685,1.685,0,0,0-.224.663l-.025.027.023.008a1.167,1.167,0,0,0,.063.623.775.775,0,0,0-.079.12c-.351.685,0,.474.311.108a.715.715,0,0,0,1.1-.394c.32.1.648.2.973.3a3.286,3.286,0,0,1,.089-.339.6.6,0,0,0,.093-.195l-.037-.019a1.061,1.061,0,0,1,.248-.413c.219.088.436.18.651.267.02.033.041.072.061.106.01.655.205,1.168.747,1.076a.556.556,0,0,0,.429-.309c.253.032.421-.047.2-.328a77.47,77.47,0,0,0,39.856,3.995c2-.324,3.968-.726,5.9-1.194.033.038.049.077.024.114a.212.212,0,0,1-.129.1.369.369,0,0,1-.11-.018,3.168,3.168,0,0,0,.789,1.252q.313-.116.622-.235a6.172,6.172,0,0,0-.317-.737h0c.026-.02.028-.026.024-.031a1.625,1.625,0,0,0,.437.175.486.486,0,0,0-.054.243c0,.053.02.181.127.178l.017,0c.078-.015.158-.123.188-.25a.479.479,0,0,0,0-.113c.226.045.471.082.723.109.02-.009.043-.016.063-.025-.036-.221-.074-.454-.113-.691-.149.02-.367.064-.59.108a8.087,8.087,0,0,1-.9.148c.01.02.021.038.03.058a.55.55,0,0,0,.061.052.166.166,0,0,0-.036,0,.256.256,0,0,1,.021.044c-.4.245-.4-.286-.22-.415-.043-.072-.084-.129-.125-.2a77.544,77.544,0,0,0,37.144-21.49c.078.157,1-.5,1.208-.765.473-.609.474-.829.278-.821a78.566,78.566,0,0,0,8.01-10.393,3.91,3.91,0,0,1,.735-.076c.056,0,.1,0,.146.008-.027-.033-.047-.065-.075-.1a.406.406,0,0,0-.035-.058l.238-.1c.133-.056.22-.094.276-.11a.231.231,0,0,0-.01-.037c-.016-.045-.031-.1,0-.135l.013-.011.065-.021a.143.143,0,0,1,.126.124.075.075,0,0,1,0,.047,1.774,1.774,0,0,1,.241.062.782.782,0,0,0,.161.041c.009,0,.019-.043-.131-.259-.027-.043-.049-.077-.065-.1a.2.2,0,0,0-.042-.06.372.372,0,0,0-.066.008c-.029.007-.073.019-.122.027-.123.017-.47.05-.6.053l-.039,0-.009-.032a1.227,1.227,0,0,0-.2-.225c.306-.491.609-.981.9-1.479a3.548,3.548,0,0,0,.954.2.536.536,0,0,0-.058.3.358.358,0,0,0,.147.061c.061,0,.094-.094.091-.283l0-.053a.253.253,0,0,0-.012-.023,1.687,1.687,0,0,0,.421-.025,2.237,2.237,0,0,0,1.047.489.141.141,0,0,0,.112-.033c.016-.023.037-.092-.07-.265a1.268,1.268,0,0,0-.948-.662.76.76,0,0,0-.245.037c-.017.006-.016.011-.028.016a9.026,9.026,0,0,0-1.017-.433,78.321,78.321,0,0,0,6.723-15.03l2-.326c.212.2.475.508.567.469a1.88,1.88,0,0,0,.74-.682l.277-.045a.687.687,0,0,0,.783.067.626.626,0,0,0-.059.122s-.182.575-.227.739c-.07.036-.128.067-.193.1l.157-.037-.049.184a3.576,3.576,0,0,0-.166.912c0,.275.108.281.165.288.3.034.389-.447.467-1.072l.037-.307c.1-.024.177-.034.262-.048a83.108,83.108,0,0,1-6.741,15.724,1.477,1.477,0,0,0-.261-.116c-.036.006-.067.04-.1.055-.168-.145-.263-.173-.307-.173a.1.1,0,0,0-.078.032c-.016.019-.01.048.013.08a.7.7,0,0,0,.183.166,1.481,1.481,0,0,0-.316.465.4.4,0,0,0-.25-.086c.133-.025-.344.513-.125.711a3.106,3.106,0,0,1,.54.087l-.293.5c-.16.022-.346-.042-.441.021-.179.121-.356.616-.464.651-.421.141-.181-.65-.478-.1a6.015,6.015,0,0,0,0,1.51c-.123.142-.252.281-.377.423a2.228,2.228,0,0,0-.558.124,1.18,1.18,0,0,0-.207-.089,1.5,1.5,0,0,0,.085-.438.249.249,0,0,0-.03-.132c-.087-.1-.313.131-.431.26-.087.091-.127.133-.177.147l-.054-.207-.069.1a.016.016,0,0,1,0,.012c0,.059-.148.024-.318-.02-.29-.093-.461-.136-.543-.174a.942.942,0,0,0-.251.667,1.751,1.751,0,0,0,.99,1.478c.03-.031.059-.063.086-.095a1.35,1.35,0,0,0,.111-.507l.133.048-.118-.178a1.82,1.82,0,0,0,.355-.452,2.354,2.354,0,0,0,.406.124c.2-.22.395-.443.591-.665a2.2,2.2,0,0,1,.229,0,83.312,83.312,0,0,1-7.256,9.74,3.672,3.672,0,0,0,.226-.441q-1.068.979-2.176,1.941c.208.26.359-.6.984-.4q-1.83,2.043-3.8,3.964a.773.773,0,0,0-.211-.322.422.422,0,0,0-.181-.023,3.392,3.392,0,0,0,0-.514c-.257.211-.521.415-.782.622a2.934,2.934,0,0,0-1.769.9,1.213,1.213,0,0,0-.233.667c-.154.114-.3.23-.455.344.154.212.284.363.337.366.082,0,.32.029.585.06.012.137-.089.32-.433.627a.975.975,0,0,1-.561.241.6.6,0,0,0,.05-.057,1.347,1.347,0,0,1-.309-.46c0,.024-.018.033-.053.041a.315.315,0,0,1-.059.018c-.049.018-.106.045-.164.069s-.146.056-.22.083a.728.728,0,0,1-.436.032c.089.1.179.2.27.3a1.865,1.865,0,0,0-1.375.944c.142-.215-.378.965-.721,1.959-1.374,1.08-2.78,2.125-4.225,3.119a2.082,2.082,0,0,0-.245-.764,4.661,4.661,0,0,0-1.162-.149,2.916,2.916,0,0,1-.342-.028,1.872,1.872,0,0,0-.266.067,1.13,1.13,0,0,0-.241.107l0-.009c-.1.06-.2.121-.3.182a.205.205,0,0,0,.046.025c-.048.053-.094.1-.135.153a1.036,1.036,0,0,1-.487.387l-.007,0c-.244.078-.366.089-.443.057-.453.275-.906.547-1.366.818a2.476,2.476,0,0,0,.589.251.882.882,0,0,0,.332-.059,3.52,3.52,0,0,0,1.1-.636.321.321,0,0,1-.062-.2.37.37,0,0,1,.2-.353l.094-.057.018.09s.01-.011.018-.015c.183-.06,1.169-.2,1.349-.257a.884.884,0,0,1,.523.232c.2.147.434.307.613.278a82.228,82.228,0,0,1-8.692,5.18.407.407,0,0,0-.159-.445c.033.077.016.19-.133.39a1.044,1.044,0,0,1-.317.28c-.02-.016-.043-.017-.067-.037.027.025.069-.123.093-.212.022.039.035.031.012-.075,0,0-.006.034-.012.075a1.384,1.384,0,0,1-.136-.413,1.088,1.088,0,0,1,.19-.073l0,.015,0-.016a.7.7,0,0,1,.178-.034.466.466,0,0,0-.068-.04c.025.011-.025-.1-.091-.169,0-.032,0-.053-.007-.1-.026-.158-.073-.468.291-.527a1.221,1.221,0,0,1,.264-.014,1.16,1.16,0,0,0,.275,0c.084-.071-.038-.234-.115-.322a1,1,0,0,1-.244-.408,1.34,1.34,0,0,1-.011-.3,4,4,0,0,1-.654.59.605.605,0,0,1-.477-.186c-.1-.075-.179-.148-.255-.135a.234.234,0,0,1,.135.294.371.371,0,0,1-.28.237.7.7,0,0,1-.241-.033c-.057-.014-.123-.033-.16-.037.034,0,.045.056.089.179a.667.667,0,0,1,.054.443.628.628,0,0,1-.347.332h-.184a.489.489,0,0,0,.174.351.893.893,0,0,0,.743.213,1.08,1.08,0,0,0,.256-.075c-.029.005-.076-.066-.1-.11a.555.555,0,0,1-.159-.426.249.249,0,0,1,.216-.17.947.947,0,0,1,.31.014.433.433,0,0,1,.313.147c-.1.053-.118.2-.1.355-.3.14-.564.4-.334.615a.346.346,0,0,0,.444.047.567.567,0,0,0,.088.034q-2.02,1.024-4.11,1.943l.005,0c.019-.03,0-.065-.031-.1a.831.831,0,0,0-.263-.162,2.143,2.143,0,0,0,.31-.692.5.5,0,0,0,.333.042c-.165.068.332-.763.02-.959.059.039-1.125.037-1.149.063-.142.137.041.375.3.572-.232.24-.466.565-.574.693-.189.217-.513.335-.479.421-.058-.133.836.177.9.15.047-.018.079-.072.119-.1a.722.722,0,0,0,.383.135c-.149.066-.3.137-.449.2-.055-.031-.11-.061-.167-.091-.05.017-.074.031-.073.034a.593.593,0,0,0,.212.07,81.948,81.948,0,0,1-9.83,3.5,3.318,3.318,0,0,0-.409-.346.894.894,0,0,0-.5-.025,3.517,3.517,0,0,0-1.651.855.788.788,0,0,1,.053.188c-.9.227-1.8.433-2.713.629a1.808,1.808,0,0,1-.285-.288c-.385.138-.776.273-1.167.409.02.069.036.125.051.179-.3.058-.595.106-.893.162a2.132,2.132,0,0,0-.162-.3c-.182-.258-.374-.414-.509-.392-.07.011-.129.077-.179.2-.073.169.109.393.325.592-.51.094-1.013.2-1.528.281-.1.016-.2.027-.3.043a1.11,1.11,0,0,1,.164-.2c-.135-.02-.228-.045-.293-.059-.05.145-.087.23-.171.244l-.1-.025a.257.257,0,0,1-.068-.232.481.481,0,0,1,.057-.153,2.41,2.41,0,0,1-.163-.26,1.781,1.781,0,0,0-.1-.168,2.283,2.283,0,0,0-.064.427l-.02.193.052.121.138.067.168.106a82.825,82.825,0,0,1-12.413.967,2.817,2.817,0,0,0-1.2-1.165c.117.308.3.714.4,1.039a2.971,2.971,0,0,0-.391-.436,1.036,1.036,0,0,1-.151.2c.085.136.176.232.264.348a81.906,81.906,0,0,1-20.212-2.784,1.62,1.62,0,0,1,.309-.542,1.379,1.379,0,0,0,.849.064,1.866,1.866,0,0,0-.488-.387,1.074,1.074,0,0,0-.361.323.385.385,0,0,1-.192-.45.746.746,0,0,1,.036-.1c.416.176.839.348,1.259.519.942-.493-.948-1.357-1.259-.519-.351-.145-.7-.293-1.042-.442.139-.18.272-.371.394-.512a2.469,2.469,0,0,0,.722-1.166.741.741,0,0,0,.217-.2.613.613,0,0,0-.31-.333c-.334-.161-.814.083-1.033.2l-.054.03-.062.01a1.96,1.96,0,0,0-.169.392,2.53,2.53,0,0,0-1.024,1.009c.214.094.422.19.633.283a4.875,4.875,0,0,1-.3.727.485.485,0,0,0,.465.034,1.957,1.957,0,0,0,.061.51l0,.012.163.027a2.343,2.343,0,0,1,.766.4c-.288-.079-.577-.159-.865-.24a.247.247,0,0,0-.105-.029c-1.334-.382-2.661-.784-3.969-1.23a.511.511,0,0,0,.292-.3c.08-.171.087-.325.021-.389a.092.092,0,0,0-.091-.024.725.725,0,0,0-.449.563.122.122,0,0,0,.03.077,83.209,83.209,0,0,1-9.174-3.808c.1-.069.209-.146.3-.206s.168-.114.219-.146a1.339,1.339,0,0,0-.849.047,1.451,1.451,0,0,0-.168.075c-.108-.054-.224-.1-.331-.151a11.526,11.526,0,0,0,1.154-1.619c-.148-.061-.293-.128-.439-.191a10.354,10.354,0,0,0-1,1.255c-.051-.042-.086-.1-.161-.112a3.494,3.494,0,0,1-.288.234l0-.005a.29.29,0,0,0-.159-.02c.457-.486,1-1.4.151-.927a.987.987,0,0,0-.25.247c-.113-.068-.226-.132-.316-.183s-.178-.1-.259-.14a1.734,1.734,0,0,1-.009.177c-.016.21-.031.421.1.524-.2-.107-.4-.215-.61-.323.037-.024.085-.043.1-.073.1-.208-.132-.294-.358-.362a.332.332,0,0,1-.091-.031,1.855,1.855,0,0,0-.249.149,83.422,83.422,0,0,1-13.2-8.921.2.2,0,0,0,.024-.079l.393.219a.91.91,0,0,0,.008.155c0-.046,0-.1,0-.139l0-.012c.35.193.706.379,1.062.567a1.78,1.78,0,0,0-.611-1.13c-.4-.113-.453.092-.472.177-.008.032,0,.084,0,.12-.115-1.389-.71-1.171-1.142-.5a83.216,83.216,0,0,1-10.531-10.662.912.912,0,0,0,.153-.115l.046.17.022-.274.028.085a.494.494,0,0,1,.013-.357.455.455,0,0,1,.224-.219,3.05,3.05,0,0,0-.916-.934.805.805,0,0,0-.4-.164.682.682,0,0,0-.419.237q-1.065-1.362-2.078-2.769a3.811,3.811,0,0,0-.02-1.1Z" transform="translate(-1864.472 1575.049)"/><path class="cls-1" d="M1936.809-1418.466c.126.056.256.109.385.162a1.575,1.575,0,0,1-.517.472A1.7,1.7,0,0,1,1936.809-1418.466Z" transform="translate(-1864.472 1575.049)"/><path class="cls-1" d="M1976.977-1442.151c-.636-.635.1-1.423,1.754-1.169a3.316,3.316,0,0,1,2.746-1.627,4.291,4.291,0,0,1,2.9,1.042,2.032,2.032,0,0,1,1.907-.229,1.376,1.376,0,0,1,0,2.619,2.3,2.3,0,0,1-2.492-.712,1.993,1.993,0,0,1-1.794.636,14.485,14.485,0,0,1-2.579-.814C1978.806-1442.4,1977.613-1441.515,1976.977-1442.151Z" transform="translate(-1864.472 1575.049)"/><path class="cls-1" d="M1960.605-1437.6c-.712.712-2.415.407-3.457.178s-2.67.763-3.458.635-.631-1.292,0-1.923,1.653-.085,2.72-.924,1.322-.661,2.619-.457.788,1.245,1.932.838,2.135.661,1.347,1.653A1.085,1.085,0,0,1,1960.605-1437.6Z" transform="translate(-1864.472 1575.049)"/><path class="cls-1" d="M1955.8-1450.108c-.152.407-1.477-.025-2.327.407s-4.213-.4-2.351-.941c1.325-.381,1.449-.1,2.034-.686s.432-.915,1.475-.712,1.665.547.661,1.551C1955.292-1450.489,1955.952-1450.515,1955.8-1450.108Z" transform="translate(-1864.472 1575.049)"/><path class="cls-1" d="M1947.716-1450.947c0-.457,1.08-.8,1.5-.381.58.58,1.269.159.94.487S1947.716-1450.489,1947.716-1450.947Z" transform="translate(-1864.472 1575.049)"/><path class="cls-1" d="M1976.4-1463.5c-.339-.78,1.966-.576,4,4.237C1980.4-1459.26,1976.774-1462.65,1976.4-1463.5Z" transform="translate(-1864.472 1575.049)"/><path class="cls-1" d="M1982-1456.995s3.627,3.39,4,4.237C1986.335-1451.978,1984.03-1452.182,1982-1456.995Z" transform="translate(-1864.472 1575.049)"/><path class="cls-1" d="M1980.561-1458.777a7.092,7.092,0,0,1,1.882-.686c.534,0,.534.432.534.635a11.4,11.4,0,0,1-1.424,1.7C1981.255-1456.827,1980.93-1458.408,1980.561-1458.777Z" transform="translate(-1864.472 1575.049)"/><path class="cls-1" d="M1978.638-1459.09a10.169,10.169,0,0,0-3.211,1.282c-.9-.239-2.51-.594-3.2-.291-.047.021-4.721,2.12-5.081,3.2-.178.532-.685,1.867-1.006,2.7-2.079,1.533-11.076,8.087-12.984,8.087-2.161,0-3.093-2.271-3.8-2.983a2.707,2.707,0,0,0-2.983.068,17.187,17.187,0,0,0,3.3,5.554c-.987.618-2.415,1.549-2.281,1.683a12.463,12.463,0,0,0,2.913-1.052,4.06,4.06,0,0,0,.816.577c2.1,1.068,10.1-2.627,11.477-3.305.5-.244,2.817-1.432,5.64-2.952-.9,3.272-3.49,9.6-3.965,10.07-.576.577,2.582.82,3.728-.327,1.127-1.126,5.4-10.179,6.956-13.514,2.862-1.7,5.208-3.263,5.654-4.056C1981.824-1456.514,1980.6-1459.09,1978.638-1459.09Zm-17.6,11.445a29.268,29.268,0,0,1-6.552,4.081.159.159,0,0,1-.16-.275,29.483,29.483,0,0,1,3.393-1.848,30.05,30.05,0,0,0,3.281-2.008C1961.025-1447.716,1961.062-1447.668,1961.034-1447.645Zm2.7,2.06a3.663,3.663,0,0,1-2.045,1.53.266.266,0,0,1-.142-.513,18.948,18.948,0,0,0,2.057-1.148C1963.685-1445.753,1963.8-1445.671,1963.738-1445.585Zm10.882-11.792c-2.888,1.575-6.365,3.78-7.593,4.568.275-.723.568-1.508.7-1.9.175-.524,2.974-2.053,4.749-2.834A4.857,4.857,0,0,1,1974.62-1457.377Zm4.307,1.287c.779-.749,1.97.44,1.185,1.185a28.786,28.786,0,0,1-6.04,4.321c-1.116.608-2.283,1.112-3.431,1.656s-2.178,1.263-3.3,1.8c-.04.019-.082-.029-.049-.062a21.349,21.349,0,0,1,2.458-1.908c1.021-.759,2-1.588,3.047-2.307A46.646,46.646,0,0,0,1978.927-1456.09Z" transform="translate(-1864.472 1575.049)"/><path class="cls-1" d="M1963.223-1450.413h-3.457a9.253,9.253,0,0,1-1.068-1.474c0-.2,7.7-1.958,7.7-1.958l-.737,1.745Z" transform="translate(-1864.472 1575.049)"/></svg>