<svg id="Layer_1" data-name="Layer 1" xmlns="http://www.w3.org/2000/svg" viewBox="0 0 40.63 40.629"><defs><style>.cls-1{fill:#fff;}.cls-2{fill:#f3735d;}</style></defs><ellipse class="cls-1" cx="20.315" cy="20.314" rx="15.294" ry="14.355"/><path class="cls-2" d="M24.151-42.9A20.315,20.315,0,0,1,44.062-22.187,20.314,20.314,0,0,1,23.351-2.276,20.315,20.315,0,0,1,3.436-22.608,20.4,20.4,0,0,1,23.943-42.9ZM37.677-29.371a11.505,11.505,0,0,1-3.039.756,4.66,4.66,0,0,0,2.268-2.731c-.9.631-2.4,2.185-3.3,1.26a4.836,4.836,0,0,0-3.68-1.638,5.237,5.237,0,0,0-3.638,1.429,4.866,4.866,0,0,0-1.5,3.612,3.432,3.432,0,0,0,.172,1.093,14.529,14.529,0,0,1-5.992-1.555,14.828,14.828,0,0,1-4.708-3.612,4.9,4.9,0,0,0-.728,2.436,4.849,4.849,0,0,0,2.354,4.243,5.171,5.171,0,0,1-2.354-.631v.084a4.967,4.967,0,0,0,1.2,3.235,4.513,4.513,0,0,0,3,1.68c-.428.168-.941.042-1.412.168a3.812,3.812,0,0,1-.942-.042A6.177,6.177,0,0,0,17.133-17.1,4.976,4.976,0,0,0,20.172-16.1c-1.883,1.47-3.981,1.848-6.377,2.142a6.406,6.406,0,0,1-1.284,0,14.753,14.753,0,0,0,7.918,2.185c4.751,0,8.3-1.512,10.828-4.663a15.248,15.248,0,0,0,3.81-9.7v-.588A15.33,15.33,0,0,0,37.677-29.371Z" transform="translate(-3.436 42.9)"/></svg>