<svg id="Layer_1" data-name="Layer 1" xmlns="http://www.w3.org/2000/svg" viewBox="0 0 41.438 41.439"><defs><style>.cls-1{fill:#fff;}.cls-2{fill:#a9dac5;}</style></defs><ellipse class="cls-1" cx="20.848" cy="20.72" rx="15.294" ry="14.355"/><path class="cls-2" d="M4.545-23.716a20.719,20.719,0,0,1,20.328-21.1,20.72,20.72,0,0,1,21.1,20.329,20.719,20.719,0,0,1-20.329,21.1c-.129,0-.258,0-.387,0A20.481,20.481,0,0,1,4.546-23.629Zm29.661,8.485a4.349,4.349,0,0,0,2.611-1.092,4.8,4.8,0,0,0,.941-2.436,31.652,31.652,0,0,0,.3-4.033V-24.6a32.947,32.947,0,0,0-.3-4.117,4.586,4.586,0,0,0-.941-2.395A3.5,3.5,0,0,0,34.206-32.2c-3.467-.211-8.774-.211-8.774-.211h-.086s-5.264,0-8.817.211a3.531,3.531,0,0,0-2.568,1.091,4.569,4.569,0,0,0-.941,2.395,32.572,32.572,0,0,0-.3,4.117v1.806a31.29,31.29,0,0,0,.3,4.033,3.486,3.486,0,0,0,3.432,3.539c.111,0,.223,0,.334-.011,2.054.21,8.646.252,8.646.252s5.307,0,8.774-.252Zm-13.012-13.9L31.21-24.006,21.194-18.881Z" transform="translate(-4.541 44.822)"/></svg>